<mxfile host="Electron" agent="Mozilla/5.0 (Windows NT 10.0; Win64; x64) AppleWebKit/537.36 (KHTML, like Gecko) draw.io/24.7.17 Chrome/128.0.6613.36 Electron/32.0.1 Safari/537.36" version="24.7.17">
  <diagram name="第 1 页" id="L1UBc1Alc3zRV2Kh3hfA">
    <mxGraphModel dx="3353" dy="1335" grid="1" gridSize="10" guides="1" tooltips="1" connect="1" arrows="1" fold="1" page="1" pageScale="1" pageWidth="827" pageHeight="1169" background="none" math="1" shadow="0">
      <root>
        <mxCell id="0" />
        <mxCell id="1" parent="0" />
        <mxCell id="D4baKiMUDy_573Tu_EqT-2" value="" style="rounded=0;whiteSpace=wrap;html=1;fontFamily=Architects Daughter;fontSource=https%3A%2F%2Ffonts.googleapis.com%2Fcss%3Ffamily%3DArchitects%2BDaughter;fillColor=none;" parent="1" vertex="1">
          <mxGeometry x="-644.38" y="22.5" width="640" height="360" as="geometry" />
        </mxCell>
        <mxCell id="JLAUi0GntHjrfKxhLljm-36" value="" style="rounded=1;whiteSpace=wrap;html=1;fontSize=10;strokeColor=#000000;" parent="1" vertex="1">
          <mxGeometry x="-274.38" y="92.5" width="140" height="100" as="geometry" />
        </mxCell>
        <mxCell id="00YW8O4VE84rYc5c044Y-1" value="\([START]\)" style="rounded=1;whiteSpace=wrap;html=1;fontFamily=Comic Sans MS;fillColor=#ffe6cc;strokeColor=#000000;fontStyle=1;fontSize=10;" parent="1" vertex="1">
          <mxGeometry x="-634.38" y="332.5" width="60" height="20" as="geometry" />
        </mxCell>
        <mxCell id="00YW8O4VE84rYc5c044Y-3" value="\(query\)" style="rounded=1;whiteSpace=wrap;html=1;fontFamily=Comic Sans MS;fillColor=#d5e8d4;strokeColor=#000000;fontStyle=1;fontSize=10;" parent="1" vertex="1">
          <mxGeometry x="-564.38" y="332.5" width="60" height="20" as="geometry" />
        </mxCell>
        <mxCell id="00YW8O4VE84rYc5c044Y-4" value="\([END]\)" style="rounded=1;whiteSpace=wrap;html=1;fontFamily=Comic Sans MS;fillColor=#ffe6cc;strokeColor=#000000;fontStyle=1;fontSize=10;" parent="1" vertex="1">
          <mxGeometry x="-494.38" y="332.5" width="60" height="20" as="geometry" />
        </mxCell>
        <mxCell id="00YW8O4VE84rYc5c044Y-5" value="\(doc\)" style="rounded=1;whiteSpace=wrap;html=1;fontFamily=Comic Sans MS;fillColor=#d5e8d4;strokeColor=#000000;fontStyle=1;fontSize=10;" parent="1" vertex="1">
          <mxGeometry x="-424.38" y="332.5" width="60" height="20" as="geometry" />
        </mxCell>
        <mxCell id="00YW8O4VE84rYc5c044Y-7" value="Multilingual Encoder" style="rounded=1;whiteSpace=wrap;html=1;fontStyle=1;fontFamily=Comic Sans MS;fillColor=#dae8fc;strokeColor=#000000;fontSize=10;" parent="1" vertex="1">
          <mxGeometry x="-634.38" y="292.5" width="270" height="20" as="geometry" />
        </mxCell>
        <mxCell id="00YW8O4VE84rYc5c044Y-8" value="\(E_{[START]}\)" style="rounded=1;whiteSpace=wrap;html=1;fontFamily=Comic Sans MS;fillColor=#ffe6cc;strokeColor=#000000;fontStyle=1;fontSize=10;" parent="1" vertex="1">
          <mxGeometry x="-634.38" y="252.5" width="60" height="20" as="geometry" />
        </mxCell>
        <mxCell id="JLAUi0GntHjrfKxhLljm-17" style="edgeStyle=orthogonalEdgeStyle;rounded=0;orthogonalLoop=1;jettySize=auto;html=1;fontSize=10;horizontal=1;arcSize=20;curved=0;strokeColor=#000000;" parent="1" edge="1">
          <mxGeometry relative="1" as="geometry">
            <mxPoint x="-604.43" y="332.5" as="sourcePoint" />
            <mxPoint x="-604.43" y="312.5" as="targetPoint" />
            <Array as="points">
              <mxPoint x="-604.31" y="332.5" />
              <mxPoint x="-604.31" y="332.5" />
            </Array>
          </mxGeometry>
        </mxCell>
        <mxCell id="00YW8O4VE84rYc5c044Y-9" value="\(E_{query}\)" style="rounded=1;whiteSpace=wrap;html=1;fontFamily=Comic Sans MS;fillColor=#d5e8d4;strokeColor=#000000;fontStyle=1;fontSize=10;" parent="1" vertex="1">
          <mxGeometry x="-564.38" y="252.5" width="60" height="20" as="geometry" />
        </mxCell>
        <mxCell id="00YW8O4VE84rYc5c044Y-10" value="\(E_{[END]}\)" style="rounded=1;whiteSpace=wrap;html=1;fontFamily=Comic Sans MS;fillColor=#ffe6cc;strokeColor=#000000;fontStyle=1;fontSize=10;" parent="1" vertex="1">
          <mxGeometry x="-494.38" y="252.5" width="60" height="20" as="geometry" />
        </mxCell>
        <mxCell id="JLAUi0GntHjrfKxhLljm-16" style="edgeStyle=orthogonalEdgeStyle;rounded=0;orthogonalLoop=1;jettySize=auto;html=1;" parent="1" edge="1">
          <mxGeometry relative="1" as="geometry">
            <mxPoint x="-394.3800000000002" y="254.5" as="sourcePoint" />
            <mxPoint x="-394.38" y="232.5" as="targetPoint" />
          </mxGeometry>
        </mxCell>
        <mxCell id="00YW8O4VE84rYc5c044Y-11" value="\(E_{doc}\)" style="rounded=1;whiteSpace=wrap;html=1;fontFamily=Comic Sans MS;fillColor=#d5e8d4;strokeColor=#000000;fontStyle=1;fontSize=10;" parent="1" vertex="1">
          <mxGeometry x="-424.38" y="252.5" width="60" height="20" as="geometry" />
        </mxCell>
        <mxCell id="u_teqyKR-DDrm2SzD53O-113" style="edgeStyle=none;curved=1;rounded=0;orthogonalLoop=1;jettySize=auto;html=1;entryX=0.5;entryY=1;entryDx=0;entryDy=0;fontFamily=Architects Daughter;fontSource=https%3A%2F%2Ffonts.googleapis.com%2Fcss%3Ffamily%3DArchitects%2BDaughter;fontSize=16;startSize=6;endArrow=classic;endSize=6;sourcePerimeterSpacing=0;targetPerimeterSpacing=0;endFill=1;" parent="1" source="bGY2hs7u3ISQT8fnIvgC-23" target="u_teqyKR-DDrm2SzD53O-107" edge="1">
          <mxGeometry relative="1" as="geometry" />
        </mxCell>
        <mxCell id="bGY2hs7u3ISQT8fnIvgC-23" value="&lt;font face=&quot;Comic Sans MS&quot;&gt;Classifier&lt;/font&gt;" style="rounded=1;whiteSpace=wrap;html=1;fontFamily=Comic Sans MS;fontStyle=1;fillColor=#fce8f2;strokeColor=#000000;gradientColor=none;fontSize=10;" parent="1" vertex="1">
          <mxGeometry x="-424.38" y="92.5" width="60" height="20" as="geometry" />
        </mxCell>
        <mxCell id="D4baKiMUDy_573Tu_EqT-58" style="edgeStyle=none;curved=1;rounded=0;orthogonalLoop=1;jettySize=auto;html=1;fontFamily=Architects Daughter;fontSource=https%3A%2F%2Ffonts.googleapis.com%2Fcss%3Ffamily%3DArchitects%2BDaughter;fontSize=16;startSize=6;endArrow=classic;endSize=6;sourcePerimeterSpacing=0;targetPerimeterSpacing=0;entryX=0.5;entryY=1;entryDx=0;entryDy=0;endFill=1;" parent="1" source="bGY2hs7u3ISQT8fnIvgC-26" target="D4baKiMUDy_573Tu_EqT-53" edge="1">
          <mxGeometry relative="1" as="geometry">
            <mxPoint x="99.10000000000002" y="548.5" as="targetPoint" />
          </mxGeometry>
        </mxCell>
        <mxCell id="bGY2hs7u3ISQT8fnIvgC-26" value="Linear" style="rounded=1;whiteSpace=wrap;html=1;fontFamily=Comic Sans MS;fillColor=#f8cecc;strokeColor=#000000;fontStyle=1;fontSize=10;" parent="1" vertex="1">
          <mxGeometry x="39.410000000000025" y="573.5" width="60" height="20" as="geometry" />
        </mxCell>
        <mxCell id="JLAUi0GntHjrfKxhLljm-2" value="\([START]\)" style="rounded=1;whiteSpace=wrap;html=1;fontFamily=Comic Sans MS;fillColor=#ffe6cc;strokeColor=#000000;fontStyle=1;fontSize=10;" parent="1" vertex="1">
          <mxGeometry x="-334.38" y="332.5" width="60" height="20" as="geometry" />
        </mxCell>
        <mxCell id="JLAUi0GntHjrfKxhLljm-3" value="\(e^{l}_{i}\)" style="rounded=1;whiteSpace=wrap;html=1;fontFamily=Comic Sans MS;fillColor=#d5e8d4;strokeColor=#000000;fontStyle=1;fontSize=10;" parent="1" vertex="1">
          <mxGeometry x="-264.38" y="332.5" width="60" height="20" as="geometry" />
        </mxCell>
        <mxCell id="JLAUi0GntHjrfKxhLljm-4" value="\([END]\)" style="rounded=1;whiteSpace=wrap;html=1;fontFamily=Comic Sans MS;fillColor=#ffe6cc;strokeColor=#000000;fontStyle=1;fontSize=10;" parent="1" vertex="1">
          <mxGeometry x="-194.38" y="332.5" width="60" height="20" as="geometry" />
        </mxCell>
        <mxCell id="JLAUi0GntHjrfKxhLljm-5" value="\(Desc^{l}_{i}\)" style="rounded=1;whiteSpace=wrap;html=1;fontFamily=Comic Sans MS;fillColor=#d5e8d4;strokeColor=#000000;fontStyle=1;fontSize=10;" parent="1" vertex="1">
          <mxGeometry x="-124.38" y="332.5" width="60" height="20" as="geometry" />
        </mxCell>
        <mxCell id="JLAUi0GntHjrfKxhLljm-6" value="Multilingual Encoder" style="rounded=1;whiteSpace=wrap;html=1;fontStyle=1;fontFamily=Comic Sans MS;fillColor=#dae8fc;strokeColor=#000000;fontSize=10;" parent="1" vertex="1">
          <mxGeometry x="-333.13" y="292.5" width="270" height="20" as="geometry" />
        </mxCell>
        <mxCell id="JLAUi0GntHjrfKxhLljm-7" value="\(E_{[START]}\)" style="rounded=1;whiteSpace=wrap;html=1;fontFamily=Comic Sans MS;fillColor=#ffe6cc;strokeColor=#000000;fontStyle=1;fontSize=10;" parent="1" vertex="1">
          <mxGeometry x="-333.13" y="252.5" width="60" height="20" as="geometry" />
        </mxCell>
        <mxCell id="JLAUi0GntHjrfKxhLljm-8" value="\(E_{e^{l}_{i}}\)" style="rounded=1;whiteSpace=wrap;html=1;fontFamily=Comic Sans MS;fillColor=#d5e8d4;strokeColor=#000000;fontStyle=1;fontSize=10;" parent="1" vertex="1">
          <mxGeometry x="-263.13" y="252.5" width="60" height="20" as="geometry" />
        </mxCell>
        <mxCell id="JLAUi0GntHjrfKxhLljm-9" value="\(E_{[END]}\)" style="rounded=1;whiteSpace=wrap;html=1;fontFamily=Comic Sans MS;fillColor=#ffe6cc;strokeColor=#000000;fontStyle=1;fontSize=10;" parent="1" vertex="1">
          <mxGeometry x="-193.13" y="252.5" width="60" height="20" as="geometry" />
        </mxCell>
        <mxCell id="JLAUi0GntHjrfKxhLljm-10" value="\(E_{Desc^{l}_{i}}\)" style="rounded=1;whiteSpace=wrap;html=1;fontFamily=Comic Sans MS;fillColor=#d5e8d4;strokeColor=#000000;fontStyle=1;fontSize=10;" parent="1" vertex="1">
          <mxGeometry x="-123.13" y="252.5" width="60" height="20" as="geometry" />
        </mxCell>
        <mxCell id="JLAUi0GntHjrfKxhLljm-27" style="rounded=0;orthogonalLoop=1;jettySize=auto;html=1;entryX=0;entryY=0.5;entryDx=0;entryDy=0;startArrow=none;startFill=0;endArrow=none;endFill=0;fontSize=10;strokeColor=#000000;" parent="1" source="JLAUi0GntHjrfKxhLljm-19" target="JLAUi0GntHjrfKxhLljm-20" edge="1">
          <mxGeometry relative="1" as="geometry" />
        </mxCell>
        <mxCell id="JLAUi0GntHjrfKxhLljm-28" style="rounded=0;orthogonalLoop=1;jettySize=auto;html=1;exitX=0.5;exitY=0;exitDx=0;exitDy=0;entryX=1;entryY=1;entryDx=0;entryDy=0;endArrow=none;endFill=0;fontSize=10;strokeColor=#000000;" parent="1" source="JLAUi0GntHjrfKxhLljm-19" target="JLAUi0GntHjrfKxhLljm-21" edge="1">
          <mxGeometry relative="1" as="geometry" />
        </mxCell>
        <mxCell id="JLAUi0GntHjrfKxhLljm-29" style="rounded=0;orthogonalLoop=1;jettySize=auto;html=1;entryX=1;entryY=0;entryDx=0;entryDy=0;endArrow=none;endFill=0;exitX=0.5;exitY=1;exitDx=0;exitDy=0;fontSize=10;strokeColor=#000000;" parent="1" source="JLAUi0GntHjrfKxhLljm-19" target="JLAUi0GntHjrfKxhLljm-22" edge="1">
          <mxGeometry relative="1" as="geometry" />
        </mxCell>
        <mxCell id="JLAUi0GntHjrfKxhLljm-19" value="\(V^{\prime}_{e^{s}_{0}}\)" style="ellipse;whiteSpace=wrap;html=1;aspect=fixed;fillColor=#f8cecc;strokeColor=#000000;fontSize=10;" parent="1" vertex="1">
          <mxGeometry x="-228.13" y="130" width="25" height="25" as="geometry" />
        </mxCell>
        <mxCell id="JLAUi0GntHjrfKxhLljm-31" style="rounded=0;orthogonalLoop=1;jettySize=auto;html=1;entryX=0;entryY=1;entryDx=0;entryDy=0;endArrow=none;endFill=0;exitX=0.5;exitY=0;exitDx=0;exitDy=0;fontSize=10;strokeColor=#000000;" parent="1" source="JLAUi0GntHjrfKxhLljm-20" target="JLAUi0GntHjrfKxhLljm-24" edge="1">
          <mxGeometry relative="1" as="geometry" />
        </mxCell>
        <mxCell id="JLAUi0GntHjrfKxhLljm-32" style="rounded=0;orthogonalLoop=1;jettySize=auto;html=1;exitX=0.5;exitY=1;exitDx=0;exitDy=0;entryX=0;entryY=0;entryDx=0;entryDy=0;endArrow=none;endFill=0;fontSize=10;strokeColor=#000000;" parent="1" source="JLAUi0GntHjrfKxhLljm-20" target="JLAUi0GntHjrfKxhLljm-25" edge="1">
          <mxGeometry relative="1" as="geometry" />
        </mxCell>
        <mxCell id="JLAUi0GntHjrfKxhLljm-20" value="\(V^{\prime}_{e^{t}_{0}}\)" style="ellipse;whiteSpace=wrap;html=1;aspect=fixed;fillColor=#f8cecc;strokeColor=#000000;fontSize=10;" parent="1" vertex="1">
          <mxGeometry x="-185.63" y="130" width="25" height="25" as="geometry" />
        </mxCell>
        <mxCell id="JLAUi0GntHjrfKxhLljm-34" style="rounded=0;orthogonalLoop=1;jettySize=auto;html=1;entryX=0;entryY=0.5;entryDx=0;entryDy=0;endArrow=none;endFill=0;fontSize=10;strokeColor=#000000;" parent="1" source="JLAUi0GntHjrfKxhLljm-21" target="JLAUi0GntHjrfKxhLljm-24" edge="1">
          <mxGeometry relative="1" as="geometry" />
        </mxCell>
        <mxCell id="JLAUi0GntHjrfKxhLljm-21" value="\(V^{\prime}_{e^{s}_{1}}\)" style="ellipse;whiteSpace=wrap;html=1;aspect=fixed;fillColor=#fff2cc;strokeColor=#000000;fontSize=10;" parent="1" vertex="1">
          <mxGeometry x="-245.63" y="100" width="25" height="25" as="geometry" />
        </mxCell>
        <mxCell id="JLAUi0GntHjrfKxhLljm-35" style="rounded=0;orthogonalLoop=1;jettySize=auto;html=1;entryX=0;entryY=0.5;entryDx=0;entryDy=0;endArrow=none;endFill=0;fontSize=10;strokeColor=#000000;" parent="1" source="JLAUi0GntHjrfKxhLljm-22" target="JLAUi0GntHjrfKxhLljm-25" edge="1">
          <mxGeometry relative="1" as="geometry" />
        </mxCell>
        <mxCell id="JLAUi0GntHjrfKxhLljm-22" value="\(V^{\prime}_{e^{s}_{2}}\)" style="ellipse;whiteSpace=wrap;html=1;aspect=fixed;fillColor=#fff2cc;strokeColor=#000000;fontSize=10;" parent="1" vertex="1">
          <mxGeometry x="-245.63" y="160" width="25" height="25" as="geometry" />
        </mxCell>
        <mxCell id="JLAUi0GntHjrfKxhLljm-24" value="\(V^{\prime}_{e^{t}_{1}}\)" style="ellipse;whiteSpace=wrap;html=1;aspect=fixed;fillColor=#fff2cc;strokeColor=#000000;fontSize=10;" parent="1" vertex="1">
          <mxGeometry x="-165.63" y="100" width="25" height="25" as="geometry" />
        </mxCell>
        <mxCell id="JLAUi0GntHjrfKxhLljm-25" value="\(V^{\prime}_{e^{s}_{2}}\)" style="ellipse;whiteSpace=wrap;html=1;aspect=fixed;fillColor=#fff2cc;strokeColor=#000000;fontSize=10;" parent="1" vertex="1">
          <mxGeometry x="-165.63" y="160" width="25" height="25" as="geometry" />
        </mxCell>
        <mxCell id="JLAUi0GntHjrfKxhLljm-37" value="GCN" style="text;html=1;align=center;verticalAlign=middle;resizable=0;points=[];autosize=1;strokeColor=none;fillColor=none;fontFamily=Comic Sans MS;fontSize=10;" parent="1" vertex="1">
          <mxGeometry x="-273.13" y="127.5" width="40" height="30" as="geometry" />
        </mxCell>
        <mxCell id="u_teqyKR-DDrm2SzD53O-111" style="edgeStyle=none;curved=1;rounded=0;orthogonalLoop=1;jettySize=auto;html=1;entryX=0.5;entryY=1;entryDx=0;entryDy=0;fontFamily=Architects Daughter;fontSource=https%3A%2F%2Ffonts.googleapis.com%2Fcss%3Ffamily%3DArchitects%2BDaughter;fontSize=16;startSize=6;endArrow=classic;endSize=6;sourcePerimeterSpacing=0;targetPerimeterSpacing=0;endFill=1;" parent="1" source="JLAUi0GntHjrfKxhLljm-54" target="u_teqyKR-DDrm2SzD53O-40" edge="1">
          <mxGeometry relative="1" as="geometry" />
        </mxCell>
        <mxCell id="JLAUi0GntHjrfKxhLljm-54" value="Linear" style="rounded=1;whiteSpace=wrap;html=1;fontFamily=Comic Sans MS;fontStyle=1;fillColor=#fce8f2;strokeColor=#000000;fontSize=10;" parent="1" vertex="1">
          <mxGeometry x="-554.38" y="132.5" width="40" height="20" as="geometry" />
        </mxCell>
        <mxCell id="JLAUi0GntHjrfKxhLljm-59" value="" style="endArrow=classic;html=1;rounded=0;exitX=-0.004;exitY=0.821;exitDx=0;exitDy=0;exitPerimeter=0;fontSize=10;strokeColor=#000000;" parent="1" edge="1">
          <mxGeometry width="50" height="50" relative="1" as="geometry">
            <mxPoint x="-274.37999999999994" y="142.495" as="sourcePoint" />
            <mxPoint x="-304.38" y="142.5" as="targetPoint" />
          </mxGeometry>
        </mxCell>
        <mxCell id="u_teqyKR-DDrm2SzD53O-10" value="" style="group;fillColor=#f8cecc;strokeColor=#000000;strokeWidth=0.5;" parent="1" vertex="1" connectable="0">
          <mxGeometry x="-419.38" y="222.5" width="50" height="10" as="geometry" />
        </mxCell>
        <mxCell id="u_teqyKR-DDrm2SzD53O-4" value="" style="rounded=0;whiteSpace=wrap;html=1;fontFamily=Architects Daughter;fontSource=https%3A%2F%2Ffonts.googleapis.com%2Fcss%3Ffamily%3DArchitects%2BDaughter;fillColor=#f8cecc;strokeColor=#000000;strokeWidth=0.5;" parent="u_teqyKR-DDrm2SzD53O-10" vertex="1">
          <mxGeometry width="10" height="10" as="geometry" />
        </mxCell>
        <mxCell id="u_teqyKR-DDrm2SzD53O-5" value="" style="rounded=0;whiteSpace=wrap;html=1;fontFamily=Architects Daughter;fontSource=https%3A%2F%2Ffonts.googleapis.com%2Fcss%3Ffamily%3DArchitects%2BDaughter;fillColor=#f8cecc;strokeColor=#000000;strokeWidth=0.5;" parent="u_teqyKR-DDrm2SzD53O-10" vertex="1">
          <mxGeometry x="10" width="10" height="10" as="geometry" />
        </mxCell>
        <mxCell id="u_teqyKR-DDrm2SzD53O-110" style="edgeStyle=none;curved=1;rounded=0;orthogonalLoop=1;jettySize=auto;html=1;fontFamily=Architects Daughter;fontSource=https%3A%2F%2Ffonts.googleapis.com%2Fcss%3Ffamily%3DArchitects%2BDaughter;fontSize=16;startSize=6;endArrow=classic;endSize=6;sourcePerimeterSpacing=0;targetPerimeterSpacing=0;exitX=0.5;exitY=0;exitDx=0;exitDy=0;endFill=1;" parent="u_teqyKR-DDrm2SzD53O-10" source="u_teqyKR-DDrm2SzD53O-6" edge="1">
          <mxGeometry relative="1" as="geometry">
            <mxPoint x="25" y="-110" as="targetPoint" />
          </mxGeometry>
        </mxCell>
        <mxCell id="u_teqyKR-DDrm2SzD53O-6" value="" style="rounded=0;whiteSpace=wrap;html=1;fontFamily=Architects Daughter;fontSource=https%3A%2F%2Ffonts.googleapis.com%2Fcss%3Ffamily%3DArchitects%2BDaughter;fillColor=#f8cecc;strokeColor=#000000;strokeWidth=0.5;" parent="u_teqyKR-DDrm2SzD53O-10" vertex="1">
          <mxGeometry x="20" width="10" height="10" as="geometry" />
        </mxCell>
        <mxCell id="u_teqyKR-DDrm2SzD53O-7" value="" style="rounded=0;whiteSpace=wrap;html=1;fontFamily=Architects Daughter;fontSource=https%3A%2F%2Ffonts.googleapis.com%2Fcss%3Ffamily%3DArchitects%2BDaughter;fillColor=#f8cecc;strokeColor=#000000;strokeWidth=0.5;" parent="u_teqyKR-DDrm2SzD53O-10" vertex="1">
          <mxGeometry x="30" width="10" height="10" as="geometry" />
        </mxCell>
        <mxCell id="u_teqyKR-DDrm2SzD53O-8" value="" style="rounded=0;whiteSpace=wrap;html=1;fontFamily=Architects Daughter;fontSource=https%3A%2F%2Ffonts.googleapis.com%2Fcss%3Ffamily%3DArchitects%2BDaughter;fillColor=#f8cecc;strokeColor=#000000;strokeWidth=0.5;" parent="u_teqyKR-DDrm2SzD53O-10" vertex="1">
          <mxGeometry x="40" width="10" height="10" as="geometry" />
        </mxCell>
        <mxCell id="u_teqyKR-DDrm2SzD53O-18" value="" style="group;fillColor=#fff2cc;strokeColor=#000000;strokeWidth=0.5;" parent="1" vertex="1" connectable="0">
          <mxGeometry x="-329.5" y="222.5" width="50" height="10" as="geometry" />
        </mxCell>
        <mxCell id="u_teqyKR-DDrm2SzD53O-19" value="" style="rounded=0;whiteSpace=wrap;html=1;fontFamily=Architects Daughter;fontSource=https%3A%2F%2Ffonts.googleapis.com%2Fcss%3Ffamily%3DArchitects%2BDaughter;fillColor=#fff2cc;strokeColor=#000000;strokeWidth=0.5;" parent="u_teqyKR-DDrm2SzD53O-18" vertex="1">
          <mxGeometry width="10" height="10" as="geometry" />
        </mxCell>
        <mxCell id="u_teqyKR-DDrm2SzD53O-20" value="" style="rounded=0;whiteSpace=wrap;html=1;fontFamily=Architects Daughter;fontSource=https%3A%2F%2Ffonts.googleapis.com%2Fcss%3Ffamily%3DArchitects%2BDaughter;fillColor=#fff2cc;strokeColor=#000000;strokeWidth=0.5;" parent="u_teqyKR-DDrm2SzD53O-18" vertex="1">
          <mxGeometry x="10" width="10" height="10" as="geometry" />
        </mxCell>
        <mxCell id="u_teqyKR-DDrm2SzD53O-21" value="" style="rounded=0;whiteSpace=wrap;html=1;fontFamily=Architects Daughter;fontSource=https%3A%2F%2Ffonts.googleapis.com%2Fcss%3Ffamily%3DArchitects%2BDaughter;fillColor=#fff2cc;strokeColor=#000000;strokeWidth=0.5;" parent="u_teqyKR-DDrm2SzD53O-18" vertex="1">
          <mxGeometry x="20" width="10" height="10" as="geometry" />
        </mxCell>
        <mxCell id="u_teqyKR-DDrm2SzD53O-22" value="" style="rounded=0;whiteSpace=wrap;html=1;fontFamily=Architects Daughter;fontSource=https%3A%2F%2Ffonts.googleapis.com%2Fcss%3Ffamily%3DArchitects%2BDaughter;fillColor=#fff2cc;strokeColor=#000000;strokeWidth=0.5;" parent="u_teqyKR-DDrm2SzD53O-18" vertex="1">
          <mxGeometry x="30" width="10" height="10" as="geometry" />
        </mxCell>
        <mxCell id="u_teqyKR-DDrm2SzD53O-23" value="" style="rounded=0;whiteSpace=wrap;html=1;fontFamily=Architects Daughter;fontSource=https%3A%2F%2Ffonts.googleapis.com%2Fcss%3Ffamily%3DArchitects%2BDaughter;fillColor=#fff2cc;strokeColor=#000000;strokeWidth=0.5;" parent="u_teqyKR-DDrm2SzD53O-18" vertex="1">
          <mxGeometry x="40" width="10" height="10" as="geometry" />
        </mxCell>
        <mxCell id="u_teqyKR-DDrm2SzD53O-25" value="" style="group;fillColor=#fff2cc;strokeColor=#000000;strokeWidth=0.5;" parent="1" vertex="1" connectable="0">
          <mxGeometry x="-224.38" y="212.5" width="50" height="10" as="geometry" />
        </mxCell>
        <mxCell id="u_teqyKR-DDrm2SzD53O-26" value="" style="rounded=0;whiteSpace=wrap;html=1;fontFamily=Architects Daughter;fontSource=https%3A%2F%2Ffonts.googleapis.com%2Fcss%3Ffamily%3DArchitects%2BDaughter;fillColor=#fff2cc;strokeColor=#000000;strokeWidth=0.5;" parent="u_teqyKR-DDrm2SzD53O-25" vertex="1">
          <mxGeometry width="10" height="10" as="geometry" />
        </mxCell>
        <mxCell id="u_teqyKR-DDrm2SzD53O-27" value="" style="rounded=0;whiteSpace=wrap;html=1;fontFamily=Architects Daughter;fontSource=https%3A%2F%2Ffonts.googleapis.com%2Fcss%3Ffamily%3DArchitects%2BDaughter;fillColor=#fff2cc;strokeColor=#000000;strokeWidth=0.5;" parent="u_teqyKR-DDrm2SzD53O-25" vertex="1">
          <mxGeometry x="10" width="10" height="10" as="geometry" />
        </mxCell>
        <mxCell id="u_teqyKR-DDrm2SzD53O-28" value="" style="rounded=0;whiteSpace=wrap;html=1;fontFamily=Architects Daughter;fontSource=https%3A%2F%2Ffonts.googleapis.com%2Fcss%3Ffamily%3DArchitects%2BDaughter;fillColor=#fff2cc;strokeColor=#000000;strokeWidth=0.5;" parent="u_teqyKR-DDrm2SzD53O-25" vertex="1">
          <mxGeometry x="20" width="10" height="10" as="geometry" />
        </mxCell>
        <mxCell id="u_teqyKR-DDrm2SzD53O-29" value="" style="rounded=0;whiteSpace=wrap;html=1;fontFamily=Architects Daughter;fontSource=https%3A%2F%2Ffonts.googleapis.com%2Fcss%3Ffamily%3DArchitects%2BDaughter;fillColor=#fff2cc;strokeColor=#000000;strokeWidth=0.5;" parent="u_teqyKR-DDrm2SzD53O-25" vertex="1">
          <mxGeometry x="30" width="10" height="10" as="geometry" />
        </mxCell>
        <mxCell id="u_teqyKR-DDrm2SzD53O-30" value="" style="rounded=0;whiteSpace=wrap;html=1;fontFamily=Architects Daughter;fontSource=https%3A%2F%2Ffonts.googleapis.com%2Fcss%3Ffamily%3DArchitects%2BDaughter;fillColor=#fff2cc;strokeColor=#000000;strokeWidth=0.5;" parent="u_teqyKR-DDrm2SzD53O-25" vertex="1">
          <mxGeometry x="40" width="10" height="10" as="geometry" />
        </mxCell>
        <mxCell id="u_teqyKR-DDrm2SzD53O-31" value="" style="group;fillColor=#d5e8d4;strokeColor=#000000;strokeWidth=0.5;" parent="1" vertex="1" connectable="0">
          <mxGeometry x="-354.38" y="137.5" width="50" height="10" as="geometry" />
        </mxCell>
        <mxCell id="u_teqyKR-DDrm2SzD53O-32" value="" style="rounded=0;whiteSpace=wrap;html=1;fontFamily=Architects Daughter;fontSource=https%3A%2F%2Ffonts.googleapis.com%2Fcss%3Ffamily%3DArchitects%2BDaughter;fillColor=#d5e8d4;strokeColor=#000000;strokeWidth=0.5;" parent="u_teqyKR-DDrm2SzD53O-31" vertex="1">
          <mxGeometry width="10" height="10" as="geometry" />
        </mxCell>
        <mxCell id="u_teqyKR-DDrm2SzD53O-33" value="" style="rounded=0;whiteSpace=wrap;html=1;fontFamily=Architects Daughter;fontSource=https%3A%2F%2Ffonts.googleapis.com%2Fcss%3Ffamily%3DArchitects%2BDaughter;fillColor=#d5e8d4;strokeColor=#000000;strokeWidth=0.5;" parent="u_teqyKR-DDrm2SzD53O-31" vertex="1">
          <mxGeometry x="10" width="10" height="10" as="geometry" />
        </mxCell>
        <mxCell id="u_teqyKR-DDrm2SzD53O-34" value="" style="rounded=0;whiteSpace=wrap;html=1;fontFamily=Architects Daughter;fontSource=https%3A%2F%2Ffonts.googleapis.com%2Fcss%3Ffamily%3DArchitects%2BDaughter;fillColor=#d5e8d4;strokeColor=#000000;strokeWidth=0.5;" parent="u_teqyKR-DDrm2SzD53O-31" vertex="1">
          <mxGeometry x="20" width="10" height="10" as="geometry" />
        </mxCell>
        <mxCell id="u_teqyKR-DDrm2SzD53O-35" value="" style="rounded=0;whiteSpace=wrap;html=1;fontFamily=Architects Daughter;fontSource=https%3A%2F%2Ffonts.googleapis.com%2Fcss%3Ffamily%3DArchitects%2BDaughter;fillColor=#d5e8d4;strokeColor=#000000;strokeWidth=0.5;" parent="u_teqyKR-DDrm2SzD53O-31" vertex="1">
          <mxGeometry x="30" width="10" height="10" as="geometry" />
        </mxCell>
        <mxCell id="u_teqyKR-DDrm2SzD53O-36" value="" style="rounded=0;whiteSpace=wrap;html=1;fontFamily=Architects Daughter;fontSource=https%3A%2F%2Ffonts.googleapis.com%2Fcss%3Ffamily%3DArchitects%2BDaughter;fillColor=#d5e8d4;strokeColor=#000000;strokeWidth=0.5;" parent="u_teqyKR-DDrm2SzD53O-31" vertex="1">
          <mxGeometry x="40" width="10" height="10" as="geometry" />
        </mxCell>
        <mxCell id="u_teqyKR-DDrm2SzD53O-37" value="" style="group;fillColor=#d5e8d4;strokeColor=#000000;strokeWidth=0.5;gradientDirection=east;" parent="1" vertex="1" connectable="0">
          <mxGeometry x="-559.38" y="97.5" width="50" height="10" as="geometry" />
        </mxCell>
        <mxCell id="u_teqyKR-DDrm2SzD53O-38" value="" style="rounded=0;whiteSpace=wrap;html=1;fontFamily=Architects Daughter;fontSource=https%3A%2F%2Ffonts.googleapis.com%2Fcss%3Ffamily%3DArchitects%2BDaughter;fillColor=#f8cecc;strokeColor=#000000;strokeWidth=0.5;gradientDirection=east;" parent="u_teqyKR-DDrm2SzD53O-37" vertex="1">
          <mxGeometry width="10" height="10" as="geometry" />
        </mxCell>
        <mxCell id="u_teqyKR-DDrm2SzD53O-39" value="" style="rounded=0;whiteSpace=wrap;html=1;fontFamily=Architects Daughter;fontSource=https%3A%2F%2Ffonts.googleapis.com%2Fcss%3Ffamily%3DArchitects%2BDaughter;fillColor=#f8cecc;strokeColor=#000000;strokeWidth=0.5;gradientColor=#fff2cc;gradientDirection=east;" parent="u_teqyKR-DDrm2SzD53O-37" vertex="1">
          <mxGeometry x="10" width="10" height="10" as="geometry" />
        </mxCell>
        <mxCell id="u_teqyKR-DDrm2SzD53O-40" value="" style="rounded=0;whiteSpace=wrap;html=1;fontFamily=Architects Daughter;fontSource=https%3A%2F%2Ffonts.googleapis.com%2Fcss%3Ffamily%3DArchitects%2BDaughter;fillColor=#fff2cc;strokeColor=#000000;strokeWidth=0.5;gradientDirection=east;" parent="u_teqyKR-DDrm2SzD53O-37" vertex="1">
          <mxGeometry x="20" width="10" height="10" as="geometry" />
        </mxCell>
        <mxCell id="u_teqyKR-DDrm2SzD53O-41" value="" style="rounded=0;whiteSpace=wrap;html=1;fontFamily=Architects Daughter;fontSource=https%3A%2F%2Ffonts.googleapis.com%2Fcss%3Ffamily%3DArchitects%2BDaughter;fillColor=#fff2cc;strokeColor=#000000;strokeWidth=0.5;gradientDirection=east;gradientColor=#d5e8d4;" parent="u_teqyKR-DDrm2SzD53O-37" vertex="1">
          <mxGeometry x="30" width="10" height="10" as="geometry" />
        </mxCell>
        <mxCell id="u_teqyKR-DDrm2SzD53O-42" value="" style="rounded=0;whiteSpace=wrap;html=1;fontFamily=Architects Daughter;fontSource=https%3A%2F%2Ffonts.googleapis.com%2Fcss%3Ffamily%3DArchitects%2BDaughter;fillColor=#d5e8d4;strokeColor=#000000;strokeWidth=0.5;gradientDirection=east;" parent="u_teqyKR-DDrm2SzD53O-37" vertex="1">
          <mxGeometry x="40" width="10" height="10" as="geometry" />
        </mxCell>
        <mxCell id="u_teqyKR-DDrm2SzD53O-51" style="edgeStyle=orthogonalEdgeStyle;rounded=0;orthogonalLoop=1;jettySize=auto;html=1;fontSize=10;horizontal=1;arcSize=20;curved=0;strokeColor=#000000;" parent="1" edge="1">
          <mxGeometry relative="1" as="geometry">
            <mxPoint x="-534.4899999999999" y="332.5" as="sourcePoint" />
            <mxPoint x="-534.4899999999999" y="312.5" as="targetPoint" />
            <Array as="points">
              <mxPoint x="-534.37" y="332.5" />
              <mxPoint x="-534.37" y="332.5" />
            </Array>
          </mxGeometry>
        </mxCell>
        <mxCell id="u_teqyKR-DDrm2SzD53O-52" style="edgeStyle=orthogonalEdgeStyle;rounded=0;orthogonalLoop=1;jettySize=auto;html=1;fontSize=10;horizontal=1;arcSize=20;curved=0;strokeColor=#000000;" parent="1" edge="1">
          <mxGeometry relative="1" as="geometry">
            <mxPoint x="-464.49" y="332.5" as="sourcePoint" />
            <mxPoint x="-464.49" y="312.5" as="targetPoint" />
            <Array as="points">
              <mxPoint x="-464.37" y="332.5" />
              <mxPoint x="-464.37" y="332.5" />
            </Array>
          </mxGeometry>
        </mxCell>
        <mxCell id="u_teqyKR-DDrm2SzD53O-53" style="edgeStyle=orthogonalEdgeStyle;rounded=0;orthogonalLoop=1;jettySize=auto;html=1;fontSize=10;horizontal=1;arcSize=20;curved=0;strokeColor=#000000;" parent="1" edge="1">
          <mxGeometry relative="1" as="geometry">
            <mxPoint x="-394.49" y="332.5" as="sourcePoint" />
            <mxPoint x="-394.49" y="312.5" as="targetPoint" />
            <Array as="points">
              <mxPoint x="-394.37" y="332.5" />
              <mxPoint x="-394.37" y="332.5" />
            </Array>
          </mxGeometry>
        </mxCell>
        <mxCell id="u_teqyKR-DDrm2SzD53O-54" style="edgeStyle=orthogonalEdgeStyle;rounded=0;orthogonalLoop=1;jettySize=auto;html=1;fontSize=10;horizontal=1;arcSize=20;curved=0;strokeColor=#000000;" parent="1" edge="1">
          <mxGeometry relative="1" as="geometry">
            <mxPoint x="-604.4899999999999" y="292.5" as="sourcePoint" />
            <mxPoint x="-604.4899999999999" y="272.5" as="targetPoint" />
            <Array as="points">
              <mxPoint x="-604.37" y="292.5" />
              <mxPoint x="-604.37" y="292.5" />
            </Array>
          </mxGeometry>
        </mxCell>
        <mxCell id="u_teqyKR-DDrm2SzD53O-55" style="edgeStyle=orthogonalEdgeStyle;rounded=0;orthogonalLoop=1;jettySize=auto;html=1;fontSize=10;horizontal=1;arcSize=20;curved=0;strokeColor=#000000;" parent="1" edge="1">
          <mxGeometry relative="1" as="geometry">
            <mxPoint x="-534.4899999999999" y="292.5" as="sourcePoint" />
            <mxPoint x="-534.4899999999999" y="272.5" as="targetPoint" />
            <Array as="points">
              <mxPoint x="-534.37" y="292.5" />
              <mxPoint x="-534.37" y="292.5" />
            </Array>
          </mxGeometry>
        </mxCell>
        <mxCell id="u_teqyKR-DDrm2SzD53O-56" style="edgeStyle=orthogonalEdgeStyle;rounded=0;orthogonalLoop=1;jettySize=auto;html=1;fontSize=10;horizontal=1;arcSize=20;curved=0;strokeColor=#000000;" parent="1" edge="1">
          <mxGeometry relative="1" as="geometry">
            <mxPoint x="-464.49" y="292.5" as="sourcePoint" />
            <mxPoint x="-464.49" y="272.5" as="targetPoint" />
            <Array as="points">
              <mxPoint x="-464.37" y="292.5" />
              <mxPoint x="-464.37" y="292.5" />
            </Array>
          </mxGeometry>
        </mxCell>
        <mxCell id="u_teqyKR-DDrm2SzD53O-57" style="edgeStyle=orthogonalEdgeStyle;rounded=0;orthogonalLoop=1;jettySize=auto;html=1;fontSize=10;horizontal=1;arcSize=20;curved=0;strokeColor=#000000;" parent="1" edge="1">
          <mxGeometry relative="1" as="geometry">
            <mxPoint x="-394.49" y="292.5" as="sourcePoint" />
            <mxPoint x="-394.49" y="272.5" as="targetPoint" />
            <Array as="points">
              <mxPoint x="-394.37" y="292.5" />
              <mxPoint x="-394.37" y="292.5" />
            </Array>
          </mxGeometry>
        </mxCell>
        <mxCell id="u_teqyKR-DDrm2SzD53O-58" style="edgeStyle=orthogonalEdgeStyle;rounded=0;orthogonalLoop=1;jettySize=auto;html=1;fontSize=10;horizontal=1;arcSize=20;curved=0;strokeColor=#000000;" parent="1" edge="1">
          <mxGeometry relative="1" as="geometry">
            <mxPoint x="-303.2" y="332.5" as="sourcePoint" />
            <mxPoint x="-303.2" y="312.5" as="targetPoint" />
            <Array as="points">
              <mxPoint x="-303.08" y="332.5" />
              <mxPoint x="-303.08" y="332.5" />
            </Array>
          </mxGeometry>
        </mxCell>
        <mxCell id="u_teqyKR-DDrm2SzD53O-59" style="edgeStyle=orthogonalEdgeStyle;rounded=0;orthogonalLoop=1;jettySize=auto;html=1;fontSize=10;horizontal=1;arcSize=20;curved=0;strokeColor=#000000;" parent="1" edge="1">
          <mxGeometry relative="1" as="geometry">
            <mxPoint x="-233.19999999999993" y="332.5" as="sourcePoint" />
            <mxPoint x="-233.19999999999993" y="312.5" as="targetPoint" />
            <Array as="points">
              <mxPoint x="-233.08000000000004" y="332.5" />
              <mxPoint x="-233.08000000000004" y="332.5" />
            </Array>
          </mxGeometry>
        </mxCell>
        <mxCell id="u_teqyKR-DDrm2SzD53O-60" style="edgeStyle=orthogonalEdgeStyle;rounded=0;orthogonalLoop=1;jettySize=auto;html=1;fontSize=10;horizontal=1;arcSize=20;curved=0;strokeColor=#000000;" parent="1" edge="1">
          <mxGeometry relative="1" as="geometry">
            <mxPoint x="-163.19999999999993" y="332.5" as="sourcePoint" />
            <mxPoint x="-163.19999999999993" y="312.5" as="targetPoint" />
            <Array as="points">
              <mxPoint x="-163.08000000000004" y="332.5" />
              <mxPoint x="-163.08000000000004" y="332.5" />
            </Array>
          </mxGeometry>
        </mxCell>
        <mxCell id="u_teqyKR-DDrm2SzD53O-62" style="edgeStyle=orthogonalEdgeStyle;rounded=0;orthogonalLoop=1;jettySize=auto;html=1;fontSize=10;horizontal=1;arcSize=20;curved=0;strokeColor=#000000;" parent="1" edge="1">
          <mxGeometry relative="1" as="geometry">
            <mxPoint x="-303.2" y="292.5" as="sourcePoint" />
            <mxPoint x="-303.2" y="272.5" as="targetPoint" />
            <Array as="points">
              <mxPoint x="-303.08" y="292.5" />
              <mxPoint x="-303.08" y="292.5" />
            </Array>
          </mxGeometry>
        </mxCell>
        <mxCell id="u_teqyKR-DDrm2SzD53O-63" style="edgeStyle=orthogonalEdgeStyle;rounded=0;orthogonalLoop=1;jettySize=auto;html=1;fontSize=10;horizontal=1;arcSize=20;curved=0;strokeColor=#000000;" parent="1" edge="1">
          <mxGeometry relative="1" as="geometry">
            <mxPoint x="-163.19999999999993" y="292.5" as="sourcePoint" />
            <mxPoint x="-163.19999999999993" y="272.5" as="targetPoint" />
            <Array as="points">
              <mxPoint x="-163.08000000000004" y="292.5" />
              <mxPoint x="-163.08000000000004" y="292.5" />
            </Array>
          </mxGeometry>
        </mxCell>
        <mxCell id="u_teqyKR-DDrm2SzD53O-64" style="edgeStyle=orthogonalEdgeStyle;rounded=0;orthogonalLoop=1;jettySize=auto;html=1;fontSize=10;horizontal=1;arcSize=20;curved=0;strokeColor=#000000;" parent="1" edge="1">
          <mxGeometry relative="1" as="geometry">
            <mxPoint x="-93.24000000000001" y="292.5" as="sourcePoint" />
            <mxPoint x="-93.24000000000001" y="272.5" as="targetPoint" />
            <Array as="points">
              <mxPoint x="-93.12" y="292.5" />
              <mxPoint x="-93.12" y="292.5" />
            </Array>
          </mxGeometry>
        </mxCell>
        <mxCell id="u_teqyKR-DDrm2SzD53O-66" style="edgeStyle=orthogonalEdgeStyle;rounded=0;orthogonalLoop=1;jettySize=auto;html=1;fontSize=10;horizontal=1;arcSize=20;curved=0;strokeColor=#000000;" parent="1" edge="1">
          <mxGeometry relative="1" as="geometry">
            <mxPoint x="-233.19999999999993" y="292.5" as="sourcePoint" />
            <mxPoint x="-233.19999999999993" y="272.5" as="targetPoint" />
            <Array as="points">
              <mxPoint x="-233.08000000000004" y="292.5" />
              <mxPoint x="-233.08000000000004" y="292.5" />
            </Array>
          </mxGeometry>
        </mxCell>
        <mxCell id="u_teqyKR-DDrm2SzD53O-67" style="edgeStyle=orthogonalEdgeStyle;rounded=0;orthogonalLoop=1;jettySize=auto;html=1;fontSize=10;horizontal=1;arcSize=20;curved=0;strokeColor=#000000;" parent="1" edge="1">
          <mxGeometry relative="1" as="geometry">
            <mxPoint x="-93.24000000000001" y="332.5" as="sourcePoint" />
            <mxPoint x="-93.24000000000001" y="312.5" as="targetPoint" />
            <Array as="points">
              <mxPoint x="-93.12" y="332.5" />
              <mxPoint x="-93.12" y="332.5" />
            </Array>
          </mxGeometry>
        </mxCell>
        <mxCell id="u_teqyKR-DDrm2SzD53O-71" style="edgeStyle=orthogonalEdgeStyle;rounded=0;orthogonalLoop=1;jettySize=auto;html=1;fontSize=10;horizontal=1;arcSize=20;curved=0;strokeColor=#000000;" parent="1" edge="1">
          <mxGeometry relative="1" as="geometry">
            <mxPoint x="-534.4799999999999" y="252.5" as="sourcePoint" />
            <mxPoint x="-534.4799999999999" y="232.5" as="targetPoint" />
            <Array as="points">
              <mxPoint x="-534.3599999999999" y="252.5" />
              <mxPoint x="-534.3599999999999" y="252.5" />
            </Array>
          </mxGeometry>
        </mxCell>
        <mxCell id="u_teqyKR-DDrm2SzD53O-74" style="edgeStyle=orthogonalEdgeStyle;rounded=0;orthogonalLoop=1;jettySize=auto;html=1;fontSize=10;horizontal=1;arcSize=20;curved=0;strokeColor=#000000;" parent="1" edge="1">
          <mxGeometry relative="1" as="geometry">
            <mxPoint x="-304.48999999999995" y="252.5" as="sourcePoint" />
            <mxPoint x="-304.48999999999995" y="232.5" as="targetPoint" />
            <Array as="points">
              <mxPoint x="-304.36999999999995" y="252.5" />
              <mxPoint x="-304.36999999999995" y="252.5" />
            </Array>
          </mxGeometry>
        </mxCell>
        <mxCell id="u_teqyKR-DDrm2SzD53O-75" value="" style="group;fillColor=#f8cecc;strokeColor=#000000;strokeWidth=0.5;" parent="1" vertex="1" connectable="0">
          <mxGeometry x="-559.38" y="222.5" width="50" height="10" as="geometry" />
        </mxCell>
        <mxCell id="u_teqyKR-DDrm2SzD53O-76" value="" style="rounded=0;whiteSpace=wrap;html=1;fontFamily=Architects Daughter;fontSource=https%3A%2F%2Ffonts.googleapis.com%2Fcss%3Ffamily%3DArchitects%2BDaughter;fillColor=#f8cecc;strokeColor=#000000;strokeWidth=0.5;" parent="u_teqyKR-DDrm2SzD53O-75" vertex="1">
          <mxGeometry width="10" height="10" as="geometry" />
        </mxCell>
        <mxCell id="u_teqyKR-DDrm2SzD53O-77" value="" style="rounded=0;whiteSpace=wrap;html=1;fontFamily=Architects Daughter;fontSource=https%3A%2F%2Ffonts.googleapis.com%2Fcss%3Ffamily%3DArchitects%2BDaughter;fillColor=#f8cecc;strokeColor=#000000;strokeWidth=0.5;" parent="u_teqyKR-DDrm2SzD53O-75" vertex="1">
          <mxGeometry x="10" width="10" height="10" as="geometry" />
        </mxCell>
        <mxCell id="u_teqyKR-DDrm2SzD53O-78" value="" style="rounded=0;whiteSpace=wrap;html=1;fontFamily=Architects Daughter;fontSource=https%3A%2F%2Ffonts.googleapis.com%2Fcss%3Ffamily%3DArchitects%2BDaughter;fillColor=#f8cecc;strokeColor=#000000;strokeWidth=0.5;" parent="u_teqyKR-DDrm2SzD53O-75" vertex="1">
          <mxGeometry x="20" width="10" height="10" as="geometry" />
        </mxCell>
        <mxCell id="u_teqyKR-DDrm2SzD53O-79" value="" style="rounded=0;whiteSpace=wrap;html=1;fontFamily=Architects Daughter;fontSource=https%3A%2F%2Ffonts.googleapis.com%2Fcss%3Ffamily%3DArchitects%2BDaughter;fillColor=#f8cecc;strokeColor=#000000;strokeWidth=0.5;" parent="u_teqyKR-DDrm2SzD53O-75" vertex="1">
          <mxGeometry x="30" width="10" height="10" as="geometry" />
        </mxCell>
        <mxCell id="u_teqyKR-DDrm2SzD53O-80" value="" style="rounded=0;whiteSpace=wrap;html=1;fontFamily=Architects Daughter;fontSource=https%3A%2F%2Ffonts.googleapis.com%2Fcss%3Ffamily%3DArchitects%2BDaughter;fillColor=#f8cecc;strokeColor=#000000;strokeWidth=0.5;" parent="u_teqyKR-DDrm2SzD53O-75" vertex="1">
          <mxGeometry x="40" width="10" height="10" as="geometry" />
        </mxCell>
        <mxCell id="u_teqyKR-DDrm2SzD53O-82" value="" style="group;fillColor=#fff2cc;strokeColor=#000000;strokeWidth=0.5;" parent="1" vertex="1" connectable="0">
          <mxGeometry x="-224.38" y="232.5" width="50" height="10" as="geometry" />
        </mxCell>
        <mxCell id="u_teqyKR-DDrm2SzD53O-83" value="" style="rounded=0;whiteSpace=wrap;html=1;fontFamily=Architects Daughter;fontSource=https%3A%2F%2Ffonts.googleapis.com%2Fcss%3Ffamily%3DArchitects%2BDaughter;fillColor=#fff2cc;strokeColor=#000000;strokeWidth=0.5;" parent="u_teqyKR-DDrm2SzD53O-82" vertex="1">
          <mxGeometry width="10" height="10" as="geometry" />
        </mxCell>
        <mxCell id="u_teqyKR-DDrm2SzD53O-84" value="" style="rounded=0;whiteSpace=wrap;html=1;fontFamily=Architects Daughter;fontSource=https%3A%2F%2Ffonts.googleapis.com%2Fcss%3Ffamily%3DArchitects%2BDaughter;fillColor=#fff2cc;strokeColor=#000000;strokeWidth=0.5;" parent="u_teqyKR-DDrm2SzD53O-82" vertex="1">
          <mxGeometry x="10" width="10" height="10" as="geometry" />
        </mxCell>
        <mxCell id="u_teqyKR-DDrm2SzD53O-85" value="" style="rounded=0;whiteSpace=wrap;html=1;fontFamily=Architects Daughter;fontSource=https%3A%2F%2Ffonts.googleapis.com%2Fcss%3Ffamily%3DArchitects%2BDaughter;fillColor=#fff2cc;strokeColor=#000000;strokeWidth=0.5;" parent="u_teqyKR-DDrm2SzD53O-82" vertex="1">
          <mxGeometry x="20" width="10" height="10" as="geometry" />
        </mxCell>
        <mxCell id="u_teqyKR-DDrm2SzD53O-86" value="" style="rounded=0;whiteSpace=wrap;html=1;fontFamily=Architects Daughter;fontSource=https%3A%2F%2Ffonts.googleapis.com%2Fcss%3Ffamily%3DArchitects%2BDaughter;fillColor=#fff2cc;strokeColor=#000000;strokeWidth=0.5;" parent="u_teqyKR-DDrm2SzD53O-82" vertex="1">
          <mxGeometry x="30" width="10" height="10" as="geometry" />
        </mxCell>
        <mxCell id="u_teqyKR-DDrm2SzD53O-87" value="" style="rounded=0;whiteSpace=wrap;html=1;fontFamily=Architects Daughter;fontSource=https%3A%2F%2Ffonts.googleapis.com%2Fcss%3Ffamily%3DArchitects%2BDaughter;fillColor=#fff2cc;strokeColor=#000000;strokeWidth=0.5;" parent="u_teqyKR-DDrm2SzD53O-82" vertex="1">
          <mxGeometry x="40" width="10" height="10" as="geometry" />
        </mxCell>
        <mxCell id="u_teqyKR-DDrm2SzD53O-88" value="&lt;span style=&quot;font-family: &amp;quot;Comic Sans MS&amp;quot;; font-size: 10px; font-weight: 700; text-wrap: wrap;&quot;&gt;\(V_{e^{l}_{i}}\)&lt;/span&gt;" style="text;html=1;align=center;verticalAlign=middle;resizable=1;points=[];autosize=1;strokeColor=none;fillColor=none;fontSize=10;fontFamily=Architects Daughter;fontSource=https%3A%2F%2Ffonts.googleapis.com%2Fcss%3Ffamily%3DArchitects%2BDaughter;movable=1;rotatable=1;deletable=1;editable=1;locked=0;connectable=1;" parent="1" vertex="1">
          <mxGeometry x="-279.5" y="217.5" width="20" height="20" as="geometry" />
        </mxCell>
        <mxCell id="u_teqyKR-DDrm2SzD53O-89" style="edgeStyle=orthogonalEdgeStyle;rounded=0;orthogonalLoop=1;jettySize=auto;html=1;fontSize=10;horizontal=1;arcSize=20;curved=0;strokeColor=#000000;" parent="1" edge="1">
          <mxGeometry relative="1" as="geometry">
            <mxPoint x="-254.12999999999994" y="227.46000000000004" as="sourcePoint" />
            <mxPoint x="-234.13" y="227.46000000000004" as="targetPoint" />
            <Array as="points">
              <mxPoint x="-254.00999999999993" y="227.46000000000004" />
              <mxPoint x="-254.00999999999993" y="227.46000000000004" />
            </Array>
          </mxGeometry>
        </mxCell>
        <mxCell id="u_teqyKR-DDrm2SzD53O-92" value="&lt;span style=&quot;font-family: &amp;quot;Comic Sans MS&amp;quot;; font-size: 10px; font-weight: 700; text-wrap: wrap;&quot;&gt;\(V_{q}\)&lt;/span&gt;" style="text;html=1;align=center;verticalAlign=middle;resizable=0;points=[];autosize=1;strokeColor=none;fillColor=none;fontSize=20;fontFamily=Architects Daughter;fontSource=https%3A%2F%2Ffonts.googleapis.com%2Fcss%3Ffamily%3DArchitects%2BDaughter;" parent="1" vertex="1">
          <mxGeometry x="-604.38" y="203.5" width="70" height="40" as="geometry" />
        </mxCell>
        <mxCell id="u_teqyKR-DDrm2SzD53O-94" value="&lt;span style=&quot;font-family: &amp;quot;Comic Sans MS&amp;quot;; font-size: 10px; font-weight: 700; text-wrap: wrap;&quot;&gt;\(V_{d}\)&lt;/span&gt;" style="text;html=1;align=center;verticalAlign=middle;resizable=0;points=[];autosize=1;strokeColor=none;fillColor=none;fontSize=20;fontFamily=Architects Daughter;fontSource=https%3A%2F%2Ffonts.googleapis.com%2Fcss%3Ffamily%3DArchitects%2BDaughter;" parent="1" vertex="1">
          <mxGeometry x="-464.38" y="204.5" width="70" height="40" as="geometry" />
        </mxCell>
        <mxCell id="u_teqyKR-DDrm2SzD53O-95" value="&lt;span style=&quot;font-family: &amp;quot;Comic Sans MS&amp;quot;; font-size: 10px; font-weight: 700; text-wrap: wrap;&quot;&gt;\(V_{e^{s}_{i}}\)&lt;/span&gt;" style="text;html=1;align=center;verticalAlign=middle;resizable=0;points=[];autosize=1;strokeColor=none;fillColor=none;fontSize=20;fontFamily=Architects Daughter;fontSource=https%3A%2F%2Ffonts.googleapis.com%2Fcss%3Ffamily%3DArchitects%2BDaughter;" parent="1" vertex="1">
          <mxGeometry x="-213.13" y="192.5" width="100" height="40" as="geometry" />
        </mxCell>
        <mxCell id="u_teqyKR-DDrm2SzD53O-96" value="&lt;span style=&quot;font-family: &amp;quot;Comic Sans MS&amp;quot;; font-size: 10px; font-weight: 700; text-wrap: wrap;&quot;&gt;\(V_{e^{t}_{i}}\)&lt;/span&gt;" style="text;html=1;align=center;verticalAlign=middle;resizable=0;points=[];autosize=1;strokeColor=none;fillColor=none;fontSize=20;fontFamily=Architects Daughter;fontSource=https%3A%2F%2Ffonts.googleapis.com%2Fcss%3Ffamily%3DArchitects%2BDaughter;" parent="1" vertex="1">
          <mxGeometry x="-214.38" y="212.5" width="100" height="40" as="geometry" />
        </mxCell>
        <mxCell id="u_teqyKR-DDrm2SzD53O-97" value="\(\mathcal{L}_{SCL}\)" style="rounded=1;whiteSpace=wrap;html=1;fontFamily=Architects Daughter;fontSource=https%3A%2F%2Ffonts.googleapis.com%2Fcss%3Ffamily%3DArchitects%2BDaughter;fontSize=10;fillColor=#FC7E7E;strokeColor=#000000;" parent="1" vertex="1">
          <mxGeometry x="-113.75" y="218" width="38.75" height="19.5" as="geometry" />
        </mxCell>
        <mxCell id="u_teqyKR-DDrm2SzD53O-98" style="edgeStyle=orthogonalEdgeStyle;rounded=0;orthogonalLoop=1;jettySize=auto;html=1;fontSize=10;horizontal=1;arcSize=20;curved=0;strokeColor=#000000;" parent="1" edge="1">
          <mxGeometry relative="1" as="geometry">
            <mxPoint x="-144.38" y="227.44000000000005" as="sourcePoint" />
            <mxPoint x="-124.38" y="227.44000000000005" as="targetPoint" />
            <Array as="points">
              <mxPoint x="-144.25999999999988" y="227.44000000000005" />
              <mxPoint x="-144.25999999999988" y="227.44000000000005" />
            </Array>
          </mxGeometry>
        </mxCell>
        <mxCell id="u_teqyKR-DDrm2SzD53O-100" value="" style="edgeStyle=none;orthogonalLoop=1;jettySize=auto;html=1;rounded=0;fontFamily=Architects Daughter;fontSource=https%3A%2F%2Ffonts.googleapis.com%2Fcss%3Ffamily%3DArchitects%2BDaughter;fontSize=16;endArrow=classic;sourcePerimeterSpacing=8;targetPerimeterSpacing=8;curved=1;endFill=1;" parent="1" edge="1">
          <mxGeometry width="140" relative="1" as="geometry">
            <mxPoint x="-199.44999999999993" y="212.5" as="sourcePoint" />
            <mxPoint x="-199.44999999999993" y="192.5" as="targetPoint" />
            <Array as="points" />
          </mxGeometry>
        </mxCell>
        <mxCell id="u_teqyKR-DDrm2SzD53O-101" value="&lt;p style=&quot;margin-top: 0pt; margin-bottom: 0pt; margin-left: 0in; direction: ltr; unicode-bidi: embed; font-size: 10px;&quot;&gt;&lt;span style=&quot;font-size: 10px; font-family: 微软雅黑;&quot;&gt;实体知识聚合&lt;/span&gt;&lt;/p&gt;" style="text;html=1;align=center;verticalAlign=middle;resizable=0;points=[];autosize=1;strokeColor=none;fillColor=none;fontSize=10;fontFamily=Architects Daughter;fontSource=https%3A%2F%2Ffonts.googleapis.com%2Fcss%3Ffamily%3DArchitects%2BDaughter;fontStyle=1" parent="1" vertex="1">
          <mxGeometry x="-134.38" y="130" width="80" height="30" as="geometry" />
        </mxCell>
        <mxCell id="u_teqyKR-DDrm2SzD53O-103" value="&lt;p style=&quot;margin-top: 0pt; margin-bottom: 0pt; margin-left: 0in; direction: ltr; unicode-bidi: embed; font-size: 10px;&quot;&gt;&lt;span style=&quot;font-size: 10px; font-family: 微软雅黑;&quot;&gt;实体信息对齐&lt;/span&gt;&lt;/p&gt;" style="text;html=1;align=center;verticalAlign=middle;resizable=0;points=[];autosize=1;strokeColor=none;fillColor=none;fontSize=10;fontFamily=Architects Daughter;fontSource=https%3A%2F%2Ffonts.googleapis.com%2Fcss%3Ffamily%3DArchitects%2BDaughter;fontStyle=1" parent="1" vertex="1">
          <mxGeometry x="-80" y="213.5" width="80" height="30" as="geometry" />
        </mxCell>
        <mxCell id="u_teqyKR-DDrm2SzD53O-104" value="&lt;p style=&quot;margin-top: 0pt; margin-bottom: 0pt; margin-left: 0in; direction: ltr; unicode-bidi: embed; font-size: 10px;&quot;&gt;&lt;span style=&quot;font-size: 10px; font-family: 微软雅黑;&quot;&gt;查询&lt;/span&gt;&lt;span style=&quot;font-size: 10px; font-family: 微软雅黑;&quot;&gt;-&lt;/span&gt;&lt;span style=&quot;font-size: 10px; font-family: 微软雅黑;&quot;&gt;文档对比学习&lt;/span&gt;&lt;/p&gt;" style="text;html=1;align=center;verticalAlign=middle;resizable=0;points=[];autosize=1;strokeColor=none;fillColor=none;fontSize=10;fontFamily=Architects Daughter;fontSource=https%3A%2F%2Ffonts.googleapis.com%2Fcss%3Ffamily%3DArchitects%2BDaughter;fontStyle=1" parent="1" vertex="1">
          <mxGeometry x="-449.37" y="20" width="110" height="30" as="geometry" />
        </mxCell>
        <mxCell id="u_teqyKR-DDrm2SzD53O-105" value="&lt;p style=&quot;margin-top: 0pt; margin-bottom: 0pt; margin-left: 0in; direction: ltr; unicode-bidi: embed; font-size: 10px;&quot;&gt;&lt;span style=&quot;font-size: 10px; font-family: 微软雅黑;&quot;&gt;查询知识融合&lt;/span&gt;&lt;/p&gt;" style="text;html=1;align=center;verticalAlign=middle;resizable=0;points=[];autosize=1;strokeColor=none;fillColor=none;fontSize=10;fontFamily=Architects Daughter;fontSource=https%3A%2F%2Ffonts.googleapis.com%2Fcss%3Ffamily%3DArchitects%2BDaughter;fontStyle=1" parent="1" vertex="1">
          <mxGeometry x="-634.38" y="127.5" width="80" height="30" as="geometry" />
        </mxCell>
        <mxCell id="u_teqyKR-DDrm2SzD53O-106" value="&lt;span style=&quot;font-family: &amp;quot;Comic Sans MS&amp;quot;; font-size: 10px; font-weight: 700; text-wrap: wrap;&quot;&gt;\(V_{kg}\)&lt;/span&gt;" style="text;html=1;align=center;verticalAlign=middle;resizable=0;points=[];autosize=1;strokeColor=none;fillColor=none;fontSize=20;fontFamily=Architects Daughter;fontSource=https%3A%2F%2Ffonts.googleapis.com%2Fcss%3Ffamily%3DArchitects%2BDaughter;" parent="1" vertex="1">
          <mxGeometry x="-364.38" y="134.5" width="70" height="40" as="geometry" />
        </mxCell>
        <mxCell id="u_teqyKR-DDrm2SzD53O-107" value="\(\mathcal{L}_{SCL}\)" style="rounded=1;whiteSpace=wrap;html=1;fontFamily=Architects Daughter;fontSource=https%3A%2F%2Ffonts.googleapis.com%2Fcss%3Ffamily%3DArchitects%2BDaughter;fontSize=10;fillColor=#FC7E7E;strokeColor=#000000;" parent="1" vertex="1">
          <mxGeometry x="-413.75" y="50" width="38.75" height="19.5" as="geometry" />
        </mxCell>
        <mxCell id="u_teqyKR-DDrm2SzD53O-108" style="edgeStyle=none;curved=1;rounded=0;orthogonalLoop=1;jettySize=auto;html=1;entryX=0.5;entryY=1;entryDx=0;entryDy=0;fontFamily=Architects Daughter;fontSource=https%3A%2F%2Ffonts.googleapis.com%2Fcss%3Ffamily%3DArchitects%2BDaughter;fontSize=16;startSize=6;endArrow=classic;endSize=6;sourcePerimeterSpacing=0;targetPerimeterSpacing=0;exitX=0.5;exitY=0;exitDx=0;exitDy=0;endFill=1;strokeWidth=1;" parent="1" source="u_teqyKR-DDrm2SzD53O-78" target="JLAUi0GntHjrfKxhLljm-54" edge="1">
          <mxGeometry relative="1" as="geometry" />
        </mxCell>
        <mxCell id="u_teqyKR-DDrm2SzD53O-109" style="edgeStyle=none;curved=1;rounded=0;orthogonalLoop=1;jettySize=auto;html=1;entryX=1;entryY=0.5;entryDx=0;entryDy=0;fontFamily=Architects Daughter;fontSource=https%3A%2F%2Ffonts.googleapis.com%2Fcss%3Ffamily%3DArchitects%2BDaughter;fontSize=16;startSize=6;endArrow=classic;endSize=6;sourcePerimeterSpacing=8;targetPerimeterSpacing=8;exitX=0;exitY=0.5;exitDx=0;exitDy=0;endFill=1;" parent="1" source="u_teqyKR-DDrm2SzD53O-32" target="JLAUi0GntHjrfKxhLljm-54" edge="1">
          <mxGeometry relative="1" as="geometry" />
        </mxCell>
        <mxCell id="u_teqyKR-DDrm2SzD53O-112" style="edgeStyle=none;curved=1;rounded=0;orthogonalLoop=1;jettySize=auto;html=1;entryX=0;entryY=0.5;entryDx=0;entryDy=0;fontFamily=Architects Daughter;fontSource=https%3A%2F%2Ffonts.googleapis.com%2Fcss%3Ffamily%3DArchitects%2BDaughter;fontSize=16;startSize=6;endArrow=classic;endSize=6;sourcePerimeterSpacing=0;targetPerimeterSpacing=0;endFill=1;" parent="1" source="u_teqyKR-DDrm2SzD53O-42" target="bGY2hs7u3ISQT8fnIvgC-23" edge="1">
          <mxGeometry relative="1" as="geometry" />
        </mxCell>
        <mxCell id="u_teqyKR-DDrm2SzD53O-114" value="&lt;span style=&quot;font-family: &amp;quot;Comic Sans MS&amp;quot;; font-size: 10px; font-weight: 700; text-wrap: wrap;&quot;&gt;\(V_{q_{kg}}\)&lt;/span&gt;" style="text;html=1;align=center;verticalAlign=middle;resizable=0;points=[];autosize=1;strokeColor=none;fillColor=none;fontSize=20;fontFamily=Architects Daughter;fontSource=https%3A%2F%2Ffonts.googleapis.com%2Fcss%3Ffamily%3DArchitects%2BDaughter;" parent="1" vertex="1">
          <mxGeometry x="-579.38" y="60" width="90" height="40" as="geometry" />
        </mxCell>
        <mxCell id="D4baKiMUDy_573Tu_EqT-47" style="edgeStyle=none;curved=1;rounded=0;orthogonalLoop=1;jettySize=auto;html=1;entryX=0.5;entryY=1;entryDx=0;entryDy=0;fontFamily=Architects Daughter;fontSource=https%3A%2F%2Ffonts.googleapis.com%2Fcss%3Ffamily%3DArchitects%2BDaughter;fontSize=16;startSize=6;endArrow=classic;endSize=6;sourcePerimeterSpacing=0;targetPerimeterSpacing=0;endFill=1;" parent="1" source="OnlCTqDmRdlNwVTcZ58E-1" target="D4baKiMUDy_573Tu_EqT-44" edge="1">
          <mxGeometry relative="1" as="geometry" />
        </mxCell>
        <mxCell id="OnlCTqDmRdlNwVTcZ58E-1" value="" style="rounded=1;whiteSpace=wrap;html=1;fontSize=10;strokeColor=#000000;fillColor=none;" parent="1" vertex="1">
          <mxGeometry x="213.28000000000003" y="613.5" width="150" height="100" as="geometry" />
        </mxCell>
        <mxCell id="OnlCTqDmRdlNwVTcZ58E-2" value="\([START]\)" style="rounded=1;whiteSpace=wrap;html=1;fontFamily=Comic Sans MS;fillColor=#ffe6cc;strokeColor=#000000;fontStyle=1;fontSize=10;" parent="1" vertex="1">
          <mxGeometry x="40.03000000000003" y="868.5" width="60" height="20" as="geometry" />
        </mxCell>
        <mxCell id="OnlCTqDmRdlNwVTcZ58E-3" value="\(query\)" style="rounded=1;whiteSpace=wrap;html=1;fontFamily=Comic Sans MS;fillColor=#d5e8d4;strokeColor=#000000;fontStyle=1;fontSize=10;" parent="1" vertex="1">
          <mxGeometry x="110.03000000000003" y="868.5" width="60" height="20" as="geometry" />
        </mxCell>
        <mxCell id="OnlCTqDmRdlNwVTcZ58E-4" value="\([END]\)" style="rounded=1;whiteSpace=wrap;html=1;fontFamily=Comic Sans MS;fillColor=#ffe6cc;strokeColor=#000000;fontStyle=1;fontSize=10;" parent="1" vertex="1">
          <mxGeometry x="180.03000000000003" y="868.5" width="60" height="20" as="geometry" />
        </mxCell>
        <mxCell id="OnlCTqDmRdlNwVTcZ58E-5" value="\(doc\)" style="rounded=1;whiteSpace=wrap;html=1;fontFamily=Comic Sans MS;fillColor=#d5e8d4;strokeColor=#000000;fontStyle=1;fontSize=10;" parent="1" vertex="1">
          <mxGeometry x="250.03000000000003" y="868.5" width="60" height="20" as="geometry" />
        </mxCell>
        <mxCell id="OnlCTqDmRdlNwVTcZ58E-6" value="Multilingual Encoder" style="rounded=1;whiteSpace=wrap;html=1;fontStyle=1;fontFamily=Comic Sans MS;fillColor=#dae8fc;strokeColor=#000000;fontSize=10;" parent="1" vertex="1">
          <mxGeometry x="40.03000000000003" y="828.5" width="270" height="20" as="geometry" />
        </mxCell>
        <mxCell id="OnlCTqDmRdlNwVTcZ58E-7" value="\(E_{[START]}\)" style="rounded=1;whiteSpace=wrap;html=1;fontFamily=Comic Sans MS;fillColor=#ffe6cc;strokeColor=#000000;fontStyle=1;fontSize=10;" parent="1" vertex="1">
          <mxGeometry x="40.03000000000003" y="788.5" width="60" height="20" as="geometry" />
        </mxCell>
        <mxCell id="OnlCTqDmRdlNwVTcZ58E-8" style="edgeStyle=orthogonalEdgeStyle;rounded=0;orthogonalLoop=1;jettySize=auto;html=1;fontSize=10;horizontal=1;arcSize=20;curved=0;strokeColor=#000000;" parent="1" edge="1">
          <mxGeometry relative="1" as="geometry">
            <mxPoint x="69.98000000000002" y="868.5" as="sourcePoint" />
            <mxPoint x="69.98000000000002" y="848.5" as="targetPoint" />
            <Array as="points">
              <mxPoint x="70.10000000000002" y="868.5" />
              <mxPoint x="70.10000000000002" y="868.5" />
            </Array>
          </mxGeometry>
        </mxCell>
        <mxCell id="OnlCTqDmRdlNwVTcZ58E-9" value="\(E_{query}\)" style="rounded=1;whiteSpace=wrap;html=1;fontFamily=Comic Sans MS;fillColor=#d5e8d4;strokeColor=#000000;fontStyle=1;fontSize=10;" parent="1" vertex="1">
          <mxGeometry x="110.03000000000003" y="788.5" width="60" height="20" as="geometry" />
        </mxCell>
        <mxCell id="OnlCTqDmRdlNwVTcZ58E-10" value="\(E_{[END]}\)" style="rounded=1;whiteSpace=wrap;html=1;fontFamily=Comic Sans MS;fillColor=#ffe6cc;strokeColor=#000000;fontStyle=1;fontSize=10;" parent="1" vertex="1">
          <mxGeometry x="180.03000000000003" y="788.5" width="60" height="20" as="geometry" />
        </mxCell>
        <mxCell id="OnlCTqDmRdlNwVTcZ58E-12" value="\(E_{doc}\)" style="rounded=1;whiteSpace=wrap;html=1;fontFamily=Comic Sans MS;fillColor=#d5e8d4;strokeColor=#000000;fontStyle=1;fontSize=10;" parent="1" vertex="1">
          <mxGeometry x="250.03000000000003" y="788.5" width="60" height="20" as="geometry" />
        </mxCell>
        <mxCell id="OnlCTqDmRdlNwVTcZ58E-14" value="&lt;font face=&quot;Comic Sans MS&quot;&gt;Classifier&lt;/font&gt;" style="rounded=1;whiteSpace=wrap;html=1;fontFamily=Comic Sans MS;fontStyle=1;fillColor=#fce8f2;strokeColor=#000000;gradientColor=none;fontSize=10;" parent="1" vertex="1">
          <mxGeometry x="134.72000000000003" y="523.5" width="60" height="20" as="geometry" />
        </mxCell>
        <mxCell id="OnlCTqDmRdlNwVTcZ58E-15" value="\([START]\)" style="rounded=1;whiteSpace=wrap;html=1;fontFamily=Comic Sans MS;fillColor=#ffe6cc;strokeColor=#000000;fontStyle=1;fontSize=10;" parent="1" vertex="1">
          <mxGeometry x="340.03000000000003" y="868.5" width="60" height="20" as="geometry" />
        </mxCell>
        <mxCell id="OnlCTqDmRdlNwVTcZ58E-16" value="\(e^{l}_{i}\)" style="rounded=1;whiteSpace=wrap;html=1;fontFamily=Comic Sans MS;fillColor=#d5e8d4;strokeColor=#000000;fontStyle=1;fontSize=10;" parent="1" vertex="1">
          <mxGeometry x="410.03000000000003" y="868.5" width="60" height="20" as="geometry" />
        </mxCell>
        <mxCell id="OnlCTqDmRdlNwVTcZ58E-17" value="\([END]\)" style="rounded=1;whiteSpace=wrap;html=1;fontFamily=Comic Sans MS;fillColor=#ffe6cc;strokeColor=#000000;fontStyle=1;fontSize=10;" parent="1" vertex="1">
          <mxGeometry x="480.03000000000003" y="868.5" width="60" height="20" as="geometry" />
        </mxCell>
        <mxCell id="OnlCTqDmRdlNwVTcZ58E-18" value="\(Desc^{l}_{i}\)" style="rounded=1;whiteSpace=wrap;html=1;fontFamily=Comic Sans MS;fillColor=#d5e8d4;strokeColor=#000000;fontStyle=1;fontSize=10;" parent="1" vertex="1">
          <mxGeometry x="550.03" y="868.5" width="60" height="20" as="geometry" />
        </mxCell>
        <mxCell id="OnlCTqDmRdlNwVTcZ58E-19" value="Multilingual Encoder" style="rounded=1;whiteSpace=wrap;html=1;fontStyle=1;fontFamily=Comic Sans MS;fillColor=#dae8fc;strokeColor=#000000;fontSize=10;" parent="1" vertex="1">
          <mxGeometry x="341.28000000000003" y="828.5" width="270" height="20" as="geometry" />
        </mxCell>
        <mxCell id="OnlCTqDmRdlNwVTcZ58E-20" value="\(E_{[START]}\)" style="rounded=1;whiteSpace=wrap;html=1;fontFamily=Comic Sans MS;fillColor=#ffe6cc;strokeColor=#000000;fontStyle=1;fontSize=10;" parent="1" vertex="1">
          <mxGeometry x="341.28000000000003" y="788.5" width="60" height="20" as="geometry" />
        </mxCell>
        <mxCell id="OnlCTqDmRdlNwVTcZ58E-21" value="\(E_{e^{l}_{i}}\)" style="rounded=1;whiteSpace=wrap;html=1;fontFamily=Comic Sans MS;fillColor=#d5e8d4;strokeColor=#000000;fontStyle=1;fontSize=10;" parent="1" vertex="1">
          <mxGeometry x="411.28000000000003" y="788.5" width="60" height="20" as="geometry" />
        </mxCell>
        <mxCell id="OnlCTqDmRdlNwVTcZ58E-22" value="\(E_{[END]}\)" style="rounded=1;whiteSpace=wrap;html=1;fontFamily=Comic Sans MS;fillColor=#ffe6cc;strokeColor=#000000;fontStyle=1;fontSize=10;" parent="1" vertex="1">
          <mxGeometry x="481.28000000000003" y="788.5" width="60" height="20" as="geometry" />
        </mxCell>
        <mxCell id="OnlCTqDmRdlNwVTcZ58E-23" value="\(E_{Desc^{l}_{i}}\)" style="rounded=1;whiteSpace=wrap;html=1;fontFamily=Comic Sans MS;fillColor=#d5e8d4;strokeColor=#000000;fontStyle=1;fontSize=10;" parent="1" vertex="1">
          <mxGeometry x="551.28" y="788.5" width="60" height="20" as="geometry" />
        </mxCell>
        <mxCell id="OnlCTqDmRdlNwVTcZ58E-37" value="GCN" style="text;html=1;align=center;verticalAlign=middle;resizable=0;points=[];autosize=1;strokeColor=none;fillColor=none;fontFamily=Comic Sans MS;fontSize=10;" parent="1" vertex="1">
          <mxGeometry x="208.47000000000003" y="648.5" width="40" height="30" as="geometry" />
        </mxCell>
        <mxCell id="OnlCTqDmRdlNwVTcZ58E-48" value="" style="group;fillColor=#fff2cc;strokeColor=#000000;strokeWidth=0.5;" parent="1" vertex="1" connectable="0">
          <mxGeometry x="344.91" y="758.5" width="50" height="10" as="geometry" />
        </mxCell>
        <mxCell id="OnlCTqDmRdlNwVTcZ58E-49" value="" style="rounded=0;whiteSpace=wrap;html=1;fontFamily=Architects Daughter;fontSource=https%3A%2F%2Ffonts.googleapis.com%2Fcss%3Ffamily%3DArchitects%2BDaughter;fillColor=#fff2cc;strokeColor=#000000;strokeWidth=0.5;" parent="OnlCTqDmRdlNwVTcZ58E-48" vertex="1">
          <mxGeometry width="10" height="10" as="geometry" />
        </mxCell>
        <mxCell id="OnlCTqDmRdlNwVTcZ58E-50" value="" style="rounded=0;whiteSpace=wrap;html=1;fontFamily=Architects Daughter;fontSource=https%3A%2F%2Ffonts.googleapis.com%2Fcss%3Ffamily%3DArchitects%2BDaughter;fillColor=#fff2cc;strokeColor=#000000;strokeWidth=0.5;" parent="OnlCTqDmRdlNwVTcZ58E-48" vertex="1">
          <mxGeometry x="10" width="10" height="10" as="geometry" />
        </mxCell>
        <mxCell id="OnlCTqDmRdlNwVTcZ58E-51" value="" style="rounded=0;whiteSpace=wrap;html=1;fontFamily=Architects Daughter;fontSource=https%3A%2F%2Ffonts.googleapis.com%2Fcss%3Ffamily%3DArchitects%2BDaughter;fillColor=#fff2cc;strokeColor=#000000;strokeWidth=0.5;" parent="OnlCTqDmRdlNwVTcZ58E-48" vertex="1">
          <mxGeometry x="20" width="10" height="10" as="geometry" />
        </mxCell>
        <mxCell id="OnlCTqDmRdlNwVTcZ58E-52" value="" style="rounded=0;whiteSpace=wrap;html=1;fontFamily=Architects Daughter;fontSource=https%3A%2F%2Ffonts.googleapis.com%2Fcss%3Ffamily%3DArchitects%2BDaughter;fillColor=#fff2cc;strokeColor=#000000;strokeWidth=0.5;" parent="OnlCTqDmRdlNwVTcZ58E-48" vertex="1">
          <mxGeometry x="30" width="10" height="10" as="geometry" />
        </mxCell>
        <mxCell id="OnlCTqDmRdlNwVTcZ58E-53" value="" style="rounded=0;whiteSpace=wrap;html=1;fontFamily=Architects Daughter;fontSource=https%3A%2F%2Ffonts.googleapis.com%2Fcss%3Ffamily%3DArchitects%2BDaughter;fillColor=#fff2cc;strokeColor=#000000;strokeWidth=0.5;" parent="OnlCTqDmRdlNwVTcZ58E-48" vertex="1">
          <mxGeometry x="40" width="10" height="10" as="geometry" />
        </mxCell>
        <mxCell id="OnlCTqDmRdlNwVTcZ58E-54" value="" style="group;fillColor=#fff2cc;strokeColor=#000000;strokeWidth=0.5;" parent="1" vertex="1" connectable="0">
          <mxGeometry x="450.03000000000003" y="748.5" width="50" height="10" as="geometry" />
        </mxCell>
        <mxCell id="OnlCTqDmRdlNwVTcZ58E-55" value="" style="rounded=0;whiteSpace=wrap;html=1;fontFamily=Architects Daughter;fontSource=https%3A%2F%2Ffonts.googleapis.com%2Fcss%3Ffamily%3DArchitects%2BDaughter;fillColor=#fff2cc;strokeColor=#000000;strokeWidth=0.5;" parent="OnlCTqDmRdlNwVTcZ58E-54" vertex="1">
          <mxGeometry width="10" height="10" as="geometry" />
        </mxCell>
        <mxCell id="OnlCTqDmRdlNwVTcZ58E-56" value="" style="rounded=0;whiteSpace=wrap;html=1;fontFamily=Architects Daughter;fontSource=https%3A%2F%2Ffonts.googleapis.com%2Fcss%3Ffamily%3DArchitects%2BDaughter;fillColor=#fff2cc;strokeColor=#000000;strokeWidth=0.5;" parent="OnlCTqDmRdlNwVTcZ58E-54" vertex="1">
          <mxGeometry x="10" width="10" height="10" as="geometry" />
        </mxCell>
        <mxCell id="OnlCTqDmRdlNwVTcZ58E-57" value="" style="rounded=0;whiteSpace=wrap;html=1;fontFamily=Architects Daughter;fontSource=https%3A%2F%2Ffonts.googleapis.com%2Fcss%3Ffamily%3DArchitects%2BDaughter;fillColor=#fff2cc;strokeColor=#000000;strokeWidth=0.5;" parent="OnlCTqDmRdlNwVTcZ58E-54" vertex="1">
          <mxGeometry x="20" width="10" height="10" as="geometry" />
        </mxCell>
        <mxCell id="OnlCTqDmRdlNwVTcZ58E-58" value="" style="rounded=0;whiteSpace=wrap;html=1;fontFamily=Architects Daughter;fontSource=https%3A%2F%2Ffonts.googleapis.com%2Fcss%3Ffamily%3DArchitects%2BDaughter;fillColor=#fff2cc;strokeColor=#000000;strokeWidth=0.5;" parent="OnlCTqDmRdlNwVTcZ58E-54" vertex="1">
          <mxGeometry x="30" width="10" height="10" as="geometry" />
        </mxCell>
        <mxCell id="OnlCTqDmRdlNwVTcZ58E-59" value="" style="rounded=0;whiteSpace=wrap;html=1;fontFamily=Architects Daughter;fontSource=https%3A%2F%2Ffonts.googleapis.com%2Fcss%3Ffamily%3DArchitects%2BDaughter;fillColor=#fff2cc;strokeColor=#000000;strokeWidth=0.5;" parent="OnlCTqDmRdlNwVTcZ58E-54" vertex="1">
          <mxGeometry x="40" width="10" height="10" as="geometry" />
        </mxCell>
        <mxCell id="OnlCTqDmRdlNwVTcZ58E-66" value="" style="group;fillColor=#d5e8d4;strokeColor=#000000;strokeWidth=0.5;gradientDirection=east;" parent="1" vertex="1" connectable="0">
          <mxGeometry x="-767.62" y="522.5" width="50" height="10" as="geometry" />
        </mxCell>
        <mxCell id="OnlCTqDmRdlNwVTcZ58E-67" value="" style="rounded=0;whiteSpace=wrap;html=1;fontFamily=Architects Daughter;fontSource=https%3A%2F%2Ffonts.googleapis.com%2Fcss%3Ffamily%3DArchitects%2BDaughter;fillColor=#f8cecc;strokeColor=#000000;strokeWidth=0.5;gradientDirection=east;" parent="OnlCTqDmRdlNwVTcZ58E-66" vertex="1">
          <mxGeometry width="10" height="10" as="geometry" />
        </mxCell>
        <mxCell id="OnlCTqDmRdlNwVTcZ58E-68" value="" style="rounded=0;whiteSpace=wrap;html=1;fontFamily=Architects Daughter;fontSource=https%3A%2F%2Ffonts.googleapis.com%2Fcss%3Ffamily%3DArchitects%2BDaughter;fillColor=#f8cecc;strokeColor=#000000;strokeWidth=0.5;gradientColor=#fff2cc;gradientDirection=east;" parent="OnlCTqDmRdlNwVTcZ58E-66" vertex="1">
          <mxGeometry x="10" width="10" height="10" as="geometry" />
        </mxCell>
        <mxCell id="OnlCTqDmRdlNwVTcZ58E-69" value="" style="rounded=0;whiteSpace=wrap;html=1;fontFamily=Architects Daughter;fontSource=https%3A%2F%2Ffonts.googleapis.com%2Fcss%3Ffamily%3DArchitects%2BDaughter;fillColor=#fff2cc;strokeColor=#000000;strokeWidth=0.5;gradientDirection=east;" parent="OnlCTqDmRdlNwVTcZ58E-66" vertex="1">
          <mxGeometry x="20" width="10" height="10" as="geometry" />
        </mxCell>
        <mxCell id="OnlCTqDmRdlNwVTcZ58E-70" value="" style="rounded=0;whiteSpace=wrap;html=1;fontFamily=Architects Daughter;fontSource=https%3A%2F%2Ffonts.googleapis.com%2Fcss%3Ffamily%3DArchitects%2BDaughter;fillColor=#fff2cc;strokeColor=#000000;strokeWidth=0.5;gradientDirection=east;gradientColor=#d5e8d4;" parent="OnlCTqDmRdlNwVTcZ58E-66" vertex="1">
          <mxGeometry x="30" width="10" height="10" as="geometry" />
        </mxCell>
        <mxCell id="OnlCTqDmRdlNwVTcZ58E-71" value="" style="rounded=0;whiteSpace=wrap;html=1;fontFamily=Architects Daughter;fontSource=https%3A%2F%2Ffonts.googleapis.com%2Fcss%3Ffamily%3DArchitects%2BDaughter;fillColor=#d5e8d4;strokeColor=#000000;strokeWidth=0.5;gradientDirection=east;" parent="OnlCTqDmRdlNwVTcZ58E-66" vertex="1">
          <mxGeometry x="40" width="10" height="10" as="geometry" />
        </mxCell>
        <mxCell id="OnlCTqDmRdlNwVTcZ58E-72" style="edgeStyle=orthogonalEdgeStyle;rounded=0;orthogonalLoop=1;jettySize=auto;html=1;fontSize=10;horizontal=1;arcSize=20;curved=0;strokeColor=#000000;" parent="1" edge="1">
          <mxGeometry relative="1" as="geometry">
            <mxPoint x="139.92000000000002" y="868.5" as="sourcePoint" />
            <mxPoint x="139.92000000000002" y="848.5" as="targetPoint" />
            <Array as="points">
              <mxPoint x="140.04000000000002" y="868.5" />
              <mxPoint x="140.04000000000002" y="868.5" />
            </Array>
          </mxGeometry>
        </mxCell>
        <mxCell id="OnlCTqDmRdlNwVTcZ58E-73" style="edgeStyle=orthogonalEdgeStyle;rounded=0;orthogonalLoop=1;jettySize=auto;html=1;fontSize=10;horizontal=1;arcSize=20;curved=0;strokeColor=#000000;" parent="1" edge="1">
          <mxGeometry relative="1" as="geometry">
            <mxPoint x="209.92000000000002" y="868.5" as="sourcePoint" />
            <mxPoint x="209.92000000000002" y="848.5" as="targetPoint" />
            <Array as="points">
              <mxPoint x="210.04000000000002" y="868.5" />
              <mxPoint x="210.04000000000002" y="868.5" />
            </Array>
          </mxGeometry>
        </mxCell>
        <mxCell id="OnlCTqDmRdlNwVTcZ58E-74" style="edgeStyle=orthogonalEdgeStyle;rounded=0;orthogonalLoop=1;jettySize=auto;html=1;fontSize=10;horizontal=1;arcSize=20;curved=0;strokeColor=#000000;" parent="1" edge="1">
          <mxGeometry relative="1" as="geometry">
            <mxPoint x="279.92" y="868.5" as="sourcePoint" />
            <mxPoint x="279.92" y="848.5" as="targetPoint" />
            <Array as="points">
              <mxPoint x="280.04" y="868.5" />
              <mxPoint x="280.04" y="868.5" />
            </Array>
          </mxGeometry>
        </mxCell>
        <mxCell id="OnlCTqDmRdlNwVTcZ58E-75" style="edgeStyle=orthogonalEdgeStyle;rounded=0;orthogonalLoop=1;jettySize=auto;html=1;fontSize=10;horizontal=1;arcSize=20;curved=0;strokeColor=#000000;" parent="1" edge="1">
          <mxGeometry relative="1" as="geometry">
            <mxPoint x="69.92000000000002" y="828.5" as="sourcePoint" />
            <mxPoint x="69.92000000000002" y="808.5" as="targetPoint" />
            <Array as="points">
              <mxPoint x="70.04000000000002" y="828.5" />
              <mxPoint x="70.04000000000002" y="828.5" />
            </Array>
          </mxGeometry>
        </mxCell>
        <mxCell id="OnlCTqDmRdlNwVTcZ58E-76" style="edgeStyle=orthogonalEdgeStyle;rounded=0;orthogonalLoop=1;jettySize=auto;html=1;fontSize=10;horizontal=1;arcSize=20;curved=0;strokeColor=#000000;" parent="1" edge="1">
          <mxGeometry relative="1" as="geometry">
            <mxPoint x="139.92000000000002" y="828.5" as="sourcePoint" />
            <mxPoint x="139.92000000000002" y="808.5" as="targetPoint" />
            <Array as="points">
              <mxPoint x="140.04000000000002" y="828.5" />
              <mxPoint x="140.04000000000002" y="828.5" />
            </Array>
          </mxGeometry>
        </mxCell>
        <mxCell id="OnlCTqDmRdlNwVTcZ58E-77" style="edgeStyle=orthogonalEdgeStyle;rounded=0;orthogonalLoop=1;jettySize=auto;html=1;fontSize=10;horizontal=1;arcSize=20;curved=0;strokeColor=#000000;" parent="1" edge="1">
          <mxGeometry relative="1" as="geometry">
            <mxPoint x="209.92000000000002" y="828.5" as="sourcePoint" />
            <mxPoint x="209.92000000000002" y="808.5" as="targetPoint" />
            <Array as="points">
              <mxPoint x="210.04000000000002" y="828.5" />
              <mxPoint x="210.04000000000002" y="828.5" />
            </Array>
          </mxGeometry>
        </mxCell>
        <mxCell id="OnlCTqDmRdlNwVTcZ58E-78" style="edgeStyle=orthogonalEdgeStyle;rounded=0;orthogonalLoop=1;jettySize=auto;html=1;fontSize=10;horizontal=1;arcSize=20;curved=0;strokeColor=#000000;" parent="1" edge="1">
          <mxGeometry relative="1" as="geometry">
            <mxPoint x="279.92" y="828.5" as="sourcePoint" />
            <mxPoint x="279.92" y="808.5" as="targetPoint" />
            <Array as="points">
              <mxPoint x="280.04" y="828.5" />
              <mxPoint x="280.04" y="828.5" />
            </Array>
          </mxGeometry>
        </mxCell>
        <mxCell id="OnlCTqDmRdlNwVTcZ58E-79" style="edgeStyle=orthogonalEdgeStyle;rounded=0;orthogonalLoop=1;jettySize=auto;html=1;fontSize=10;horizontal=1;arcSize=20;curved=0;strokeColor=#000000;" parent="1" edge="1">
          <mxGeometry relative="1" as="geometry">
            <mxPoint x="371.21000000000004" y="868.5" as="sourcePoint" />
            <mxPoint x="371.21000000000004" y="848.5" as="targetPoint" />
            <Array as="points">
              <mxPoint x="371.33000000000004" y="868.5" />
              <mxPoint x="371.33000000000004" y="868.5" />
            </Array>
          </mxGeometry>
        </mxCell>
        <mxCell id="OnlCTqDmRdlNwVTcZ58E-80" style="edgeStyle=orthogonalEdgeStyle;rounded=0;orthogonalLoop=1;jettySize=auto;html=1;fontSize=10;horizontal=1;arcSize=20;curved=0;strokeColor=#000000;" parent="1" edge="1">
          <mxGeometry relative="1" as="geometry">
            <mxPoint x="441.2100000000001" y="868.5" as="sourcePoint" />
            <mxPoint x="441.2100000000001" y="848.5" as="targetPoint" />
            <Array as="points">
              <mxPoint x="441.33" y="868.5" />
              <mxPoint x="441.33" y="868.5" />
            </Array>
          </mxGeometry>
        </mxCell>
        <mxCell id="OnlCTqDmRdlNwVTcZ58E-81" style="edgeStyle=orthogonalEdgeStyle;rounded=0;orthogonalLoop=1;jettySize=auto;html=1;fontSize=10;horizontal=1;arcSize=20;curved=0;strokeColor=#000000;" parent="1" edge="1">
          <mxGeometry relative="1" as="geometry">
            <mxPoint x="511.2100000000001" y="868.5" as="sourcePoint" />
            <mxPoint x="511.2100000000001" y="848.5" as="targetPoint" />
            <Array as="points">
              <mxPoint x="511.33" y="868.5" />
              <mxPoint x="511.33" y="868.5" />
            </Array>
          </mxGeometry>
        </mxCell>
        <mxCell id="OnlCTqDmRdlNwVTcZ58E-82" style="edgeStyle=orthogonalEdgeStyle;rounded=0;orthogonalLoop=1;jettySize=auto;html=1;fontSize=10;horizontal=1;arcSize=20;curved=0;strokeColor=#000000;" parent="1" edge="1">
          <mxGeometry relative="1" as="geometry">
            <mxPoint x="371.21000000000004" y="828.5" as="sourcePoint" />
            <mxPoint x="371.21000000000004" y="808.5" as="targetPoint" />
            <Array as="points">
              <mxPoint x="371.33000000000004" y="828.5" />
              <mxPoint x="371.33000000000004" y="828.5" />
            </Array>
          </mxGeometry>
        </mxCell>
        <mxCell id="OnlCTqDmRdlNwVTcZ58E-83" style="edgeStyle=orthogonalEdgeStyle;rounded=0;orthogonalLoop=1;jettySize=auto;html=1;fontSize=10;horizontal=1;arcSize=20;curved=0;strokeColor=#000000;" parent="1" edge="1">
          <mxGeometry relative="1" as="geometry">
            <mxPoint x="511.2100000000001" y="828.5" as="sourcePoint" />
            <mxPoint x="511.2100000000001" y="808.5" as="targetPoint" />
            <Array as="points">
              <mxPoint x="511.33" y="828.5" />
              <mxPoint x="511.33" y="828.5" />
            </Array>
          </mxGeometry>
        </mxCell>
        <mxCell id="OnlCTqDmRdlNwVTcZ58E-84" style="edgeStyle=orthogonalEdgeStyle;rounded=0;orthogonalLoop=1;jettySize=auto;html=1;fontSize=10;horizontal=1;arcSize=20;curved=0;strokeColor=#000000;" parent="1" edge="1">
          <mxGeometry relative="1" as="geometry">
            <mxPoint x="581.1700000000001" y="828.5" as="sourcePoint" />
            <mxPoint x="581.1700000000001" y="808.5" as="targetPoint" />
            <Array as="points">
              <mxPoint x="581.29" y="828.5" />
              <mxPoint x="581.29" y="828.5" />
            </Array>
          </mxGeometry>
        </mxCell>
        <mxCell id="OnlCTqDmRdlNwVTcZ58E-85" style="edgeStyle=orthogonalEdgeStyle;rounded=0;orthogonalLoop=1;jettySize=auto;html=1;fontSize=10;horizontal=1;arcSize=20;curved=0;strokeColor=#000000;" parent="1" edge="1">
          <mxGeometry relative="1" as="geometry">
            <mxPoint x="441.2100000000001" y="828.5" as="sourcePoint" />
            <mxPoint x="441.2100000000001" y="808.5" as="targetPoint" />
            <Array as="points">
              <mxPoint x="441.33" y="828.5" />
              <mxPoint x="441.33" y="828.5" />
            </Array>
          </mxGeometry>
        </mxCell>
        <mxCell id="OnlCTqDmRdlNwVTcZ58E-86" style="edgeStyle=orthogonalEdgeStyle;rounded=0;orthogonalLoop=1;jettySize=auto;html=1;fontSize=10;horizontal=1;arcSize=20;curved=0;strokeColor=#000000;" parent="1" edge="1">
          <mxGeometry relative="1" as="geometry">
            <mxPoint x="581.1700000000001" y="868.5" as="sourcePoint" />
            <mxPoint x="581.1700000000001" y="848.5" as="targetPoint" />
            <Array as="points">
              <mxPoint x="581.29" y="868.5" />
              <mxPoint x="581.29" y="868.5" />
            </Array>
          </mxGeometry>
        </mxCell>
        <mxCell id="OnlCTqDmRdlNwVTcZ58E-87" style="edgeStyle=orthogonalEdgeStyle;rounded=0;orthogonalLoop=1;jettySize=auto;html=1;fontSize=10;horizontal=1;arcSize=20;curved=0;strokeColor=#000000;" parent="1" edge="1">
          <mxGeometry relative="1" as="geometry">
            <mxPoint x="69.41000000000003" y="788.5" as="sourcePoint" />
            <mxPoint x="69.41000000000003" y="768.5" as="targetPoint" />
            <Array as="points">
              <mxPoint x="69.53000000000003" y="788.5" />
              <mxPoint x="69.53000000000003" y="788.5" />
            </Array>
          </mxGeometry>
        </mxCell>
        <mxCell id="OnlCTqDmRdlNwVTcZ58E-88" style="edgeStyle=orthogonalEdgeStyle;rounded=0;orthogonalLoop=1;jettySize=auto;html=1;fontSize=10;horizontal=1;arcSize=20;curved=0;strokeColor=#000000;" parent="1" edge="1">
          <mxGeometry relative="1" as="geometry">
            <mxPoint x="369.9200000000001" y="788.5" as="sourcePoint" />
            <mxPoint x="369.9200000000001" y="768.5" as="targetPoint" />
            <Array as="points">
              <mxPoint x="370.0400000000001" y="788.5" />
              <mxPoint x="370.0400000000001" y="788.5" />
            </Array>
          </mxGeometry>
        </mxCell>
        <mxCell id="OnlCTqDmRdlNwVTcZ58E-89" value="" style="group;fillColor=#f8cecc;strokeColor=#000000;strokeWidth=0.5;" parent="1" vertex="1" connectable="0">
          <mxGeometry x="44.410000000000025" y="758.5" width="50" height="10" as="geometry" />
        </mxCell>
        <mxCell id="OnlCTqDmRdlNwVTcZ58E-90" value="" style="rounded=0;whiteSpace=wrap;html=1;fontFamily=Architects Daughter;fontSource=https%3A%2F%2Ffonts.googleapis.com%2Fcss%3Ffamily%3DArchitects%2BDaughter;fillColor=#f8cecc;strokeColor=#000000;strokeWidth=0.5;" parent="OnlCTqDmRdlNwVTcZ58E-89" vertex="1">
          <mxGeometry width="10" height="10" as="geometry" />
        </mxCell>
        <mxCell id="OnlCTqDmRdlNwVTcZ58E-91" value="" style="rounded=0;whiteSpace=wrap;html=1;fontFamily=Architects Daughter;fontSource=https%3A%2F%2Ffonts.googleapis.com%2Fcss%3Ffamily%3DArchitects%2BDaughter;fillColor=#f8cecc;strokeColor=#000000;strokeWidth=0.5;" parent="OnlCTqDmRdlNwVTcZ58E-89" vertex="1">
          <mxGeometry x="10" width="10" height="10" as="geometry" />
        </mxCell>
        <mxCell id="OnlCTqDmRdlNwVTcZ58E-92" value="" style="rounded=0;whiteSpace=wrap;html=1;fontFamily=Architects Daughter;fontSource=https%3A%2F%2Ffonts.googleapis.com%2Fcss%3Ffamily%3DArchitects%2BDaughter;fillColor=#f8cecc;strokeColor=#000000;strokeWidth=0.5;" parent="OnlCTqDmRdlNwVTcZ58E-89" vertex="1">
          <mxGeometry x="20" width="10" height="10" as="geometry" />
        </mxCell>
        <mxCell id="OnlCTqDmRdlNwVTcZ58E-93" value="" style="rounded=0;whiteSpace=wrap;html=1;fontFamily=Architects Daughter;fontSource=https%3A%2F%2Ffonts.googleapis.com%2Fcss%3Ffamily%3DArchitects%2BDaughter;fillColor=#f8cecc;strokeColor=#000000;strokeWidth=0.5;" parent="OnlCTqDmRdlNwVTcZ58E-89" vertex="1">
          <mxGeometry x="30" width="10" height="10" as="geometry" />
        </mxCell>
        <mxCell id="OnlCTqDmRdlNwVTcZ58E-94" value="" style="rounded=0;whiteSpace=wrap;html=1;fontFamily=Architects Daughter;fontSource=https%3A%2F%2Ffonts.googleapis.com%2Fcss%3Ffamily%3DArchitects%2BDaughter;fillColor=#f8cecc;strokeColor=#000000;strokeWidth=0.5;" parent="OnlCTqDmRdlNwVTcZ58E-89" vertex="1">
          <mxGeometry x="40" width="10" height="10" as="geometry" />
        </mxCell>
        <mxCell id="OnlCTqDmRdlNwVTcZ58E-95" value="" style="group;fillColor=#fff2cc;strokeColor=#000000;strokeWidth=0.5;" parent="1" vertex="1" connectable="0">
          <mxGeometry x="450.03000000000003" y="768.5" width="50" height="10" as="geometry" />
        </mxCell>
        <mxCell id="OnlCTqDmRdlNwVTcZ58E-96" value="" style="rounded=0;whiteSpace=wrap;html=1;fontFamily=Architects Daughter;fontSource=https%3A%2F%2Ffonts.googleapis.com%2Fcss%3Ffamily%3DArchitects%2BDaughter;fillColor=#fff2cc;strokeColor=#000000;strokeWidth=0.5;" parent="OnlCTqDmRdlNwVTcZ58E-95" vertex="1">
          <mxGeometry width="10" height="10" as="geometry" />
        </mxCell>
        <mxCell id="OnlCTqDmRdlNwVTcZ58E-97" value="" style="rounded=0;whiteSpace=wrap;html=1;fontFamily=Architects Daughter;fontSource=https%3A%2F%2Ffonts.googleapis.com%2Fcss%3Ffamily%3DArchitects%2BDaughter;fillColor=#fff2cc;strokeColor=#000000;strokeWidth=0.5;" parent="OnlCTqDmRdlNwVTcZ58E-95" vertex="1">
          <mxGeometry x="10" width="10" height="10" as="geometry" />
        </mxCell>
        <mxCell id="OnlCTqDmRdlNwVTcZ58E-98" value="" style="rounded=0;whiteSpace=wrap;html=1;fontFamily=Architects Daughter;fontSource=https%3A%2F%2Ffonts.googleapis.com%2Fcss%3Ffamily%3DArchitects%2BDaughter;fillColor=#fff2cc;strokeColor=#000000;strokeWidth=0.5;" parent="OnlCTqDmRdlNwVTcZ58E-95" vertex="1">
          <mxGeometry x="20" width="10" height="10" as="geometry" />
        </mxCell>
        <mxCell id="OnlCTqDmRdlNwVTcZ58E-99" value="" style="rounded=0;whiteSpace=wrap;html=1;fontFamily=Architects Daughter;fontSource=https%3A%2F%2Ffonts.googleapis.com%2Fcss%3Ffamily%3DArchitects%2BDaughter;fillColor=#fff2cc;strokeColor=#000000;strokeWidth=0.5;" parent="OnlCTqDmRdlNwVTcZ58E-95" vertex="1">
          <mxGeometry x="30" width="10" height="10" as="geometry" />
        </mxCell>
        <mxCell id="OnlCTqDmRdlNwVTcZ58E-100" value="" style="rounded=0;whiteSpace=wrap;html=1;fontFamily=Architects Daughter;fontSource=https%3A%2F%2Ffonts.googleapis.com%2Fcss%3Ffamily%3DArchitects%2BDaughter;fillColor=#fff2cc;strokeColor=#000000;strokeWidth=0.5;" parent="OnlCTqDmRdlNwVTcZ58E-95" vertex="1">
          <mxGeometry x="40" width="10" height="10" as="geometry" />
        </mxCell>
        <mxCell id="OnlCTqDmRdlNwVTcZ58E-101" value="&lt;span style=&quot;font-family: &amp;quot;Comic Sans MS&amp;quot;; font-size: 10px; font-weight: 700; text-wrap: wrap;&quot;&gt;\(V_{e^{l}_{i}}\)&lt;/span&gt;" style="text;html=1;align=center;verticalAlign=middle;resizable=1;points=[];autosize=1;strokeColor=none;fillColor=none;fontSize=10;fontFamily=Architects Daughter;fontSource=https%3A%2F%2Ffonts.googleapis.com%2Fcss%3Ffamily%3DArchitects%2BDaughter;movable=1;rotatable=1;deletable=1;editable=1;locked=0;connectable=1;" parent="1" vertex="1">
          <mxGeometry x="394.91" y="753.5" width="20" height="20" as="geometry" />
        </mxCell>
        <mxCell id="OnlCTqDmRdlNwVTcZ58E-102" style="edgeStyle=orthogonalEdgeStyle;rounded=0;orthogonalLoop=1;jettySize=auto;html=1;fontSize=10;horizontal=1;arcSize=20;curved=0;strokeColor=#000000;" parent="1" edge="1">
          <mxGeometry relative="1" as="geometry">
            <mxPoint x="420.2800000000001" y="763.46" as="sourcePoint" />
            <mxPoint x="440.28000000000003" y="763.46" as="targetPoint" />
            <Array as="points">
              <mxPoint x="420.4000000000001" y="763.46" />
              <mxPoint x="420.4000000000001" y="763.46" />
            </Array>
          </mxGeometry>
        </mxCell>
        <mxCell id="OnlCTqDmRdlNwVTcZ58E-103" value="&lt;span style=&quot;font-family: &amp;quot;Comic Sans MS&amp;quot;; font-size: 10px; font-weight: 700; text-wrap: wrap;&quot;&gt;\(V_{qd}\)&lt;/span&gt;" style="text;html=1;align=center;verticalAlign=middle;resizable=0;points=[];autosize=1;strokeColor=none;fillColor=none;fontSize=20;fontFamily=Architects Daughter;fontSource=https%3A%2F%2Ffonts.googleapis.com%2Fcss%3Ffamily%3DArchitects%2BDaughter;" parent="1" vertex="1">
          <mxGeometry x="69.41000000000003" y="740.5" width="70" height="40" as="geometry" />
        </mxCell>
        <mxCell id="OnlCTqDmRdlNwVTcZ58E-105" value="&lt;span style=&quot;font-family: &amp;quot;Comic Sans MS&amp;quot;; font-size: 10px; font-weight: 700; text-wrap: wrap;&quot;&gt;\(V_{e^{s}_{i}}\)&lt;/span&gt;" style="text;html=1;align=center;verticalAlign=middle;resizable=0;points=[];autosize=1;strokeColor=none;fillColor=none;fontSize=20;fontFamily=Architects Daughter;fontSource=https%3A%2F%2Ffonts.googleapis.com%2Fcss%3Ffamily%3DArchitects%2BDaughter;" parent="1" vertex="1">
          <mxGeometry x="461.28000000000003" y="728.5" width="100" height="40" as="geometry" />
        </mxCell>
        <mxCell id="OnlCTqDmRdlNwVTcZ58E-106" value="&lt;span style=&quot;font-family: &amp;quot;Comic Sans MS&amp;quot;; font-size: 10px; font-weight: 700; text-wrap: wrap;&quot;&gt;\(V_{e^{t}_{i}}\)&lt;/span&gt;" style="text;html=1;align=center;verticalAlign=middle;resizable=0;points=[];autosize=1;strokeColor=none;fillColor=none;fontSize=20;fontFamily=Architects Daughter;fontSource=https%3A%2F%2Ffonts.googleapis.com%2Fcss%3Ffamily%3DArchitects%2BDaughter;" parent="1" vertex="1">
          <mxGeometry x="460.03000000000003" y="748.5" width="100" height="40" as="geometry" />
        </mxCell>
        <mxCell id="OnlCTqDmRdlNwVTcZ58E-107" value="\(\mathcal{L}_{SCL}\)" style="rounded=1;whiteSpace=wrap;html=1;fontFamily=Architects Daughter;fontSource=https%3A%2F%2Ffonts.googleapis.com%2Fcss%3Ffamily%3DArchitects%2BDaughter;fontSize=10;fillColor=#FC7E7E;strokeColor=#000000;" parent="1" vertex="1">
          <mxGeometry x="560.6600000000001" y="754" width="38.75" height="19.5" as="geometry" />
        </mxCell>
        <mxCell id="OnlCTqDmRdlNwVTcZ58E-108" style="edgeStyle=orthogonalEdgeStyle;rounded=0;orthogonalLoop=1;jettySize=auto;html=1;fontSize=10;horizontal=1;arcSize=20;curved=0;strokeColor=#000000;" parent="1" edge="1">
          <mxGeometry relative="1" as="geometry">
            <mxPoint x="530.03" y="763.44" as="sourcePoint" />
            <mxPoint x="550.03" y="763.44" as="targetPoint" />
            <Array as="points">
              <mxPoint x="530.1500000000001" y="763.44" />
              <mxPoint x="530.1500000000001" y="763.44" />
            </Array>
          </mxGeometry>
        </mxCell>
        <mxCell id="OnlCTqDmRdlNwVTcZ58E-109" value="" style="edgeStyle=none;orthogonalLoop=1;jettySize=auto;html=1;rounded=0;fontFamily=Architects Daughter;fontSource=https%3A%2F%2Ffonts.googleapis.com%2Fcss%3Ffamily%3DArchitects%2BDaughter;fontSize=16;endArrow=classic;sourcePerimeterSpacing=8;targetPerimeterSpacing=8;curved=1;endFill=1;entryX=1;entryY=1;entryDx=0;entryDy=0;" parent="1" target="OnlCTqDmRdlNwVTcZ58E-1" edge="1">
          <mxGeometry width="140" relative="1" as="geometry">
            <mxPoint x="474.9600000000001" y="748.5" as="sourcePoint" />
            <mxPoint x="339.41" y="726" as="targetPoint" />
            <Array as="points" />
          </mxGeometry>
        </mxCell>
        <mxCell id="OnlCTqDmRdlNwVTcZ58E-110" value="&lt;p style=&quot;margin-top: 0pt; margin-bottom: 0pt; margin-left: 0in; direction: ltr; unicode-bidi: embed; font-size: 10px;&quot;&gt;&lt;span style=&quot;font-size: 10px; font-family: 微软雅黑;&quot;&gt;实体知识聚合&lt;/span&gt;&lt;/p&gt;" style="text;html=1;align=center;verticalAlign=middle;resizable=0;points=[];autosize=1;strokeColor=none;fillColor=none;fontSize=10;fontFamily=Architects Daughter;fontSource=https%3A%2F%2Ffonts.googleapis.com%2Fcss%3Ffamily%3DArchitects%2BDaughter;fontStyle=1" parent="1" vertex="1">
          <mxGeometry x="-533.1299999999999" y="750" width="80" height="30" as="geometry" />
        </mxCell>
        <mxCell id="OnlCTqDmRdlNwVTcZ58E-111" value="&lt;p style=&quot;margin-top: 0pt; margin-bottom: 0pt; margin-left: 0in; direction: ltr; unicode-bidi: embed; font-size: 10px;&quot;&gt;&lt;span style=&quot;font-size: 10px; font-family: 微软雅黑;&quot;&gt;实体信息对齐&lt;/span&gt;&lt;/p&gt;" style="text;html=1;align=center;verticalAlign=middle;resizable=0;points=[];autosize=1;strokeColor=none;fillColor=none;fontSize=10;fontFamily=Architects Daughter;fontSource=https%3A%2F%2Ffonts.googleapis.com%2Fcss%3Ffamily%3DArchitects%2BDaughter;fontStyle=1" parent="1" vertex="1">
          <mxGeometry x="540.0300000000001" y="720" width="80" height="30" as="geometry" />
        </mxCell>
        <mxCell id="OnlCTqDmRdlNwVTcZ58E-112" value="&lt;p style=&quot;margin-top: 0pt; margin-bottom: 0pt; margin-left: 0in; direction: ltr; unicode-bidi: embed; font-size: 10px;&quot;&gt;&lt;span style=&quot;font-size: 10px; font-family: 微软雅黑;&quot;&gt;查询&lt;/span&gt;&lt;span style=&quot;font-size: 10px; font-family: 微软雅黑;&quot;&gt;-&lt;/span&gt;&lt;span style=&quot;font-size: 10px; font-family: 微软雅黑;&quot;&gt;文档对比学习&lt;/span&gt;&lt;/p&gt;" style="text;html=1;align=center;verticalAlign=middle;resizable=0;points=[];autosize=1;strokeColor=none;fillColor=none;fontSize=10;fontFamily=Architects Daughter;fontSource=https%3A%2F%2Ffonts.googleapis.com%2Fcss%3Ffamily%3DArchitects%2BDaughter;fontStyle=1" parent="1" vertex="1">
          <mxGeometry x="-404.06" y="433" width="110" height="30" as="geometry" />
        </mxCell>
        <mxCell id="OnlCTqDmRdlNwVTcZ58E-113" value="&lt;p style=&quot;margin-top: 0pt; margin-bottom: 0pt; margin-left: 0in; direction: ltr; unicode-bidi: embed; font-size: 10px;&quot;&gt;&lt;span style=&quot;font-size: 10px; font-family: 微软雅黑;&quot;&gt;查询知识融合&lt;/span&gt;&lt;/p&gt;" style="text;html=1;align=center;verticalAlign=middle;resizable=0;points=[];autosize=1;strokeColor=none;fillColor=none;fontSize=10;fontFamily=Architects Daughter;fontSource=https%3A%2F%2Ffonts.googleapis.com%2Fcss%3Ffamily%3DArchitects%2BDaughter;fontStyle=1" parent="1" vertex="1">
          <mxGeometry x="-533.1299999999999" y="720" width="80" height="30" as="geometry" />
        </mxCell>
        <mxCell id="OnlCTqDmRdlNwVTcZ58E-115" value="\(\mathcal{L}_{SCL}\)" style="rounded=1;whiteSpace=wrap;html=1;fontFamily=Architects Daughter;fontSource=https%3A%2F%2Ffonts.googleapis.com%2Fcss%3Ffamily%3DArchitects%2BDaughter;fontSize=10;fillColor=#FC7E7E;strokeColor=#000000;" parent="1" vertex="1">
          <mxGeometry x="-438.75" y="443.5" width="38.75" height="19.5" as="geometry" />
        </mxCell>
        <mxCell id="OnlCTqDmRdlNwVTcZ58E-119" value="&lt;span style=&quot;font-family: &amp;quot;Comic Sans MS&amp;quot;; font-size: 10px; font-weight: 700; text-wrap: wrap;&quot;&gt;\(V_{q_{kg}}\)&lt;/span&gt;" style="text;html=1;align=center;verticalAlign=middle;resizable=0;points=[];autosize=1;strokeColor=none;fillColor=none;fontSize=20;fontFamily=Architects Daughter;fontSource=https%3A%2F%2Ffonts.googleapis.com%2Fcss%3Ffamily%3DArchitects%2BDaughter;" parent="1" vertex="1">
          <mxGeometry x="-827" y="502" width="90" height="40" as="geometry" />
        </mxCell>
        <mxCell id="OnlCTqDmRdlNwVTcZ58E-122" style="edgeStyle=none;curved=1;rounded=0;orthogonalLoop=1;jettySize=auto;html=1;fontFamily=Architects Daughter;fontSource=https%3A%2F%2Ffonts.googleapis.com%2Fcss%3Ffamily%3DArchitects%2BDaughter;fontSize=16;startSize=6;endArrow=classic;endSize=6;sourcePerimeterSpacing=0;targetPerimeterSpacing=0;exitX=0.5;exitY=0;exitDx=0;exitDy=0;endFill=1;entryX=0;entryY=1;entryDx=0;entryDy=0;" parent="1" source="OnlCTqDmRdlNwVTcZ58E-92" target="OnlCTqDmRdlNwVTcZ58E-1" edge="1">
          <mxGeometry relative="1" as="geometry">
            <mxPoint x="209.41000000000003" y="726" as="targetPoint" />
          </mxGeometry>
        </mxCell>
        <mxCell id="OnlCTqDmRdlNwVTcZ58E-123" value="" style="group;fillColor=#f8cecc;strokeColor=#000000;strokeWidth=0.5;" parent="1" vertex="1" connectable="0">
          <mxGeometry x="-767.62" y="552.5" width="50" height="10" as="geometry" />
        </mxCell>
        <mxCell id="OnlCTqDmRdlNwVTcZ58E-124" value="" style="rounded=0;whiteSpace=wrap;html=1;fontFamily=Architects Daughter;fontSource=https%3A%2F%2Ffonts.googleapis.com%2Fcss%3Ffamily%3DArchitects%2BDaughter;fillColor=#f8cecc;strokeColor=#000000;strokeWidth=0.5;" parent="OnlCTqDmRdlNwVTcZ58E-123" vertex="1">
          <mxGeometry width="10" height="10" as="geometry" />
        </mxCell>
        <mxCell id="OnlCTqDmRdlNwVTcZ58E-125" value="" style="rounded=0;whiteSpace=wrap;html=1;fontFamily=Architects Daughter;fontSource=https%3A%2F%2Ffonts.googleapis.com%2Fcss%3Ffamily%3DArchitects%2BDaughter;fillColor=#f8cecc;strokeColor=#000000;strokeWidth=0.5;" parent="OnlCTqDmRdlNwVTcZ58E-123" vertex="1">
          <mxGeometry x="10" width="10" height="10" as="geometry" />
        </mxCell>
        <mxCell id="OnlCTqDmRdlNwVTcZ58E-126" value="" style="rounded=0;whiteSpace=wrap;html=1;fontFamily=Architects Daughter;fontSource=https%3A%2F%2Ffonts.googleapis.com%2Fcss%3Ffamily%3DArchitects%2BDaughter;fillColor=#f8cecc;strokeColor=#000000;strokeWidth=0.5;" parent="OnlCTqDmRdlNwVTcZ58E-123" vertex="1">
          <mxGeometry x="20" width="10" height="10" as="geometry" />
        </mxCell>
        <mxCell id="OnlCTqDmRdlNwVTcZ58E-127" value="" style="rounded=0;whiteSpace=wrap;html=1;fontFamily=Architects Daughter;fontSource=https%3A%2F%2Ffonts.googleapis.com%2Fcss%3Ffamily%3DArchitects%2BDaughter;fillColor=#f8cecc;strokeColor=#000000;strokeWidth=0.5;" parent="OnlCTqDmRdlNwVTcZ58E-123" vertex="1">
          <mxGeometry x="30" width="10" height="10" as="geometry" />
        </mxCell>
        <mxCell id="OnlCTqDmRdlNwVTcZ58E-128" value="" style="rounded=0;whiteSpace=wrap;html=1;fontFamily=Architects Daughter;fontSource=https%3A%2F%2Ffonts.googleapis.com%2Fcss%3Ffamily%3DArchitects%2BDaughter;fillColor=#f8cecc;strokeColor=#000000;strokeWidth=0.5;" parent="OnlCTqDmRdlNwVTcZ58E-123" vertex="1">
          <mxGeometry x="40" width="10" height="10" as="geometry" />
        </mxCell>
        <mxCell id="OnlCTqDmRdlNwVTcZ58E-129" value="&lt;span style=&quot;font-family: &amp;quot;Comic Sans MS&amp;quot;; font-size: 10px; font-weight: 700; text-wrap: wrap;&quot;&gt;\(V_{qd}\)&lt;/span&gt;" style="text;html=1;align=center;verticalAlign=middle;resizable=0;points=[];autosize=1;strokeColor=none;fillColor=none;fontSize=20;fontFamily=Architects Daughter;fontSource=https%3A%2F%2Ffonts.googleapis.com%2Fcss%3Ffamily%3DArchitects%2BDaughter;" parent="1" vertex="1">
          <mxGeometry x="-827" y="532.5" width="70" height="40" as="geometry" />
        </mxCell>
        <mxCell id="D4baKiMUDy_573Tu_EqT-1" value="" style="ellipse;whiteSpace=wrap;html=1;fontFamily=Architects Daughter;fontSource=https%3A%2F%2Ffonts.googleapis.com%2Fcss%3Ffamily%3DArchitects%2BDaughter;fillColor=none;strokeColor=#ff0000;strokeWidth=3;" parent="1" vertex="1">
          <mxGeometry x="-609.37" y="174.5" width="274.99" height="100" as="geometry" />
        </mxCell>
        <mxCell id="D4baKiMUDy_573Tu_EqT-3" value="Modeling 1" style="text;strokeColor=none;fillColor=none;html=1;align=center;verticalAlign=middle;whiteSpace=wrap;rounded=0;fontSize=20;fontFamily=Architects Daughter;fontSource=https%3A%2F%2Ffonts.googleapis.com%2Fcss%3Ffamily%3DArchitects%2BDaughter;fontStyle=1;fontColor=#CC0000;" parent="1" vertex="1">
          <mxGeometry x="-259.5" y="44.75" width="115.12" height="30" as="geometry" />
        </mxCell>
        <mxCell id="D4baKiMUDy_573Tu_EqT-4" value="&lt;font color=&quot;#ff0000&quot;&gt;Pass 掉&lt;/font&gt;，训练时 query 有正样本 doc 和负样本 doc ，这样子提取 query 的向量表示 会使一个batch_size 内的 相同的 query 得到的向量表示不一样。" style="text;strokeColor=none;fillColor=none;html=1;align=left;verticalAlign=middle;whiteSpace=wrap;rounded=0;fontSize=10;fontFamily=Architects Daughter;fontSource=https%3A%2F%2Ffonts.googleapis.com%2Fcss%3Ffamily%3DArchitects%2BDaughter;fontStyle=1" parent="1" vertex="1">
          <mxGeometry x="-799.9999999999999" y="94.5" width="110" height="110" as="geometry" />
        </mxCell>
        <mxCell id="D4baKiMUDy_573Tu_EqT-5" value="" style="edgeStyle=none;orthogonalLoop=1;jettySize=auto;html=1;rounded=0;fontFamily=Architects Daughter;fontSource=https%3A%2F%2Ffonts.googleapis.com%2Fcss%3Ffamily%3DArchitects%2BDaughter;fontSize=16;startSize=14;endArrow=open;endSize=14;sourcePerimeterSpacing=8;targetPerimeterSpacing=8;curved=1;exitX=1.01;exitY=0.542;exitDx=0;exitDy=0;exitPerimeter=0;" parent="1" source="D4baKiMUDy_573Tu_EqT-4" target="D4baKiMUDy_573Tu_EqT-1" edge="1">
          <mxGeometry width="140" relative="1" as="geometry">
            <mxPoint x="-699.9999999999999" y="150" as="sourcePoint" />
            <mxPoint x="-559.9999999999999" y="150" as="targetPoint" />
            <Array as="points" />
          </mxGeometry>
        </mxCell>
        <mxCell id="D4baKiMUDy_573Tu_EqT-17" value="" style="group" parent="1" vertex="1" connectable="0">
          <mxGeometry x="254.84000000000003" y="613.5" width="100.32" height="100" as="geometry" />
        </mxCell>
        <mxCell id="D4baKiMUDy_573Tu_EqT-7" style="edgeStyle=none;curved=1;rounded=0;orthogonalLoop=1;jettySize=auto;html=1;entryX=0;entryY=0.5;entryDx=0;entryDy=0;fontFamily=Architects Daughter;fontSource=https%3A%2F%2Ffonts.googleapis.com%2Fcss%3Ffamily%3DArchitects%2BDaughter;fontSize=16;startSize=14;endArrow=none;endSize=14;sourcePerimeterSpacing=0;targetPerimeterSpacing=0;endFill=0;" parent="D4baKiMUDy_573Tu_EqT-17" source="OnlCTqDmRdlNwVTcZ58E-27" target="OnlCTqDmRdlNwVTcZ58E-120" edge="1">
          <mxGeometry relative="1" as="geometry" />
        </mxCell>
        <mxCell id="D4baKiMUDy_573Tu_EqT-9" style="edgeStyle=none;curved=1;rounded=0;orthogonalLoop=1;jettySize=auto;html=1;exitX=0;exitY=0;exitDx=0;exitDy=0;entryX=0;entryY=0.5;entryDx=0;entryDy=0;fontFamily=Architects Daughter;fontSource=https%3A%2F%2Ffonts.googleapis.com%2Fcss%3Ffamily%3DArchitects%2BDaughter;fontSize=16;startSize=14;endArrow=none;endSize=14;sourcePerimeterSpacing=0;targetPerimeterSpacing=0;endFill=0;" parent="D4baKiMUDy_573Tu_EqT-17" source="OnlCTqDmRdlNwVTcZ58E-27" target="OnlCTqDmRdlNwVTcZ58E-32" edge="1">
          <mxGeometry relative="1" as="geometry">
            <Array as="points">
              <mxPoint x="0.3199999999999932" y="30" />
            </Array>
          </mxGeometry>
        </mxCell>
        <mxCell id="D4baKiMUDy_573Tu_EqT-10" style="edgeStyle=none;curved=1;rounded=0;orthogonalLoop=1;jettySize=auto;html=1;exitX=0;exitY=1;exitDx=0;exitDy=0;entryX=0;entryY=0.5;entryDx=0;entryDy=0;fontFamily=Architects Daughter;fontSource=https%3A%2F%2Ffonts.googleapis.com%2Fcss%3Ffamily%3DArchitects%2BDaughter;fontSize=16;startSize=14;endArrow=none;endSize=14;sourcePerimeterSpacing=0;targetPerimeterSpacing=0;endFill=0;" parent="D4baKiMUDy_573Tu_EqT-17" source="OnlCTqDmRdlNwVTcZ58E-27" target="OnlCTqDmRdlNwVTcZ58E-34" edge="1">
          <mxGeometry relative="1" as="geometry">
            <Array as="points">
              <mxPoint x="0.3199999999999932" y="70" />
            </Array>
          </mxGeometry>
        </mxCell>
        <mxCell id="D4baKiMUDy_573Tu_EqT-16" style="edgeStyle=none;curved=1;rounded=0;orthogonalLoop=1;jettySize=auto;html=1;exitX=1;exitY=0;exitDx=0;exitDy=0;entryX=0;entryY=0;entryDx=0;entryDy=0;fontFamily=Architects Daughter;fontSource=https%3A%2F%2Ffonts.googleapis.com%2Fcss%3Ffamily%3DArchitects%2BDaughter;fontSize=16;startSize=14;endArrow=none;endSize=14;sourcePerimeterSpacing=0;targetPerimeterSpacing=0;endFill=0;" parent="D4baKiMUDy_573Tu_EqT-17" source="OnlCTqDmRdlNwVTcZ58E-27" target="OnlCTqDmRdlNwVTcZ58E-30" edge="1">
          <mxGeometry relative="1" as="geometry">
            <Array as="points">
              <mxPoint x="50.31999999999999" y="20" />
            </Array>
          </mxGeometry>
        </mxCell>
        <mxCell id="OnlCTqDmRdlNwVTcZ58E-27" value="\(V^{\prime}_{e^{s}_{0}}\)" style="ellipse;whiteSpace=wrap;html=1;aspect=fixed;fillColor=#fff2cc;strokeColor=default;fontSize=6;strokeWidth=1;" parent="D4baKiMUDy_573Tu_EqT-17" vertex="1">
          <mxGeometry y="39.870000000000005" width="20.25" height="20.25" as="geometry" />
        </mxCell>
        <mxCell id="D4baKiMUDy_573Tu_EqT-12" style="edgeStyle=none;curved=1;rounded=0;orthogonalLoop=1;jettySize=auto;html=1;exitX=1;exitY=0;exitDx=0;exitDy=0;entryX=1;entryY=0.5;entryDx=0;entryDy=0;fontFamily=Architects Daughter;fontSource=https%3A%2F%2Ffonts.googleapis.com%2Fcss%3Ffamily%3DArchitects%2BDaughter;fontSize=16;startSize=14;endArrow=none;endSize=14;sourcePerimeterSpacing=0;targetPerimeterSpacing=0;endFill=0;" parent="D4baKiMUDy_573Tu_EqT-17" source="OnlCTqDmRdlNwVTcZ58E-30" target="OnlCTqDmRdlNwVTcZ58E-35" edge="1">
          <mxGeometry relative="1" as="geometry">
            <Array as="points">
              <mxPoint x="100.32" y="30" />
            </Array>
          </mxGeometry>
        </mxCell>
        <mxCell id="OnlCTqDmRdlNwVTcZ58E-30" value="\(V^{\prime}_{e^{t}_{0}}\)" style="ellipse;whiteSpace=wrap;html=1;aspect=fixed;fillColor=#fff2cc;strokeColor=default;fontSize=6;strokeWidth=1;" parent="D4baKiMUDy_573Tu_EqT-17" vertex="1">
          <mxGeometry x="80.25" y="39.870000000000005" width="20" height="20" as="geometry" />
        </mxCell>
        <mxCell id="D4baKiMUDy_573Tu_EqT-11" style="edgeStyle=none;curved=1;rounded=0;orthogonalLoop=1;jettySize=auto;html=1;exitX=1;exitY=0;exitDx=0;exitDy=0;entryX=0;entryY=0;entryDx=0;entryDy=0;fontFamily=Architects Daughter;fontSource=https%3A%2F%2Ffonts.googleapis.com%2Fcss%3Ffamily%3DArchitects%2BDaughter;fontSize=16;startSize=14;endArrow=none;endSize=14;sourcePerimeterSpacing=0;targetPerimeterSpacing=0;endFill=0;" parent="D4baKiMUDy_573Tu_EqT-17" source="OnlCTqDmRdlNwVTcZ58E-32" target="OnlCTqDmRdlNwVTcZ58E-35" edge="1">
          <mxGeometry relative="1" as="geometry">
            <Array as="points">
              <mxPoint x="50.31999999999999" />
            </Array>
          </mxGeometry>
        </mxCell>
        <mxCell id="OnlCTqDmRdlNwVTcZ58E-32" value="\(V^{\prime}_{e^{s}_{1}}\)" style="ellipse;whiteSpace=wrap;html=1;aspect=fixed;fillColor=#fff2cc;strokeColor=default;fontSize=6;strokeWidth=1;" parent="D4baKiMUDy_573Tu_EqT-17" vertex="1">
          <mxGeometry x="10.25" y="10" width="19.93" height="19.93" as="geometry" />
        </mxCell>
        <mxCell id="D4baKiMUDy_573Tu_EqT-14" style="edgeStyle=none;curved=1;rounded=0;orthogonalLoop=1;jettySize=auto;html=1;entryX=0;entryY=1;entryDx=0;entryDy=0;fontFamily=Architects Daughter;fontSource=https%3A%2F%2Ffonts.googleapis.com%2Fcss%3Ffamily%3DArchitects%2BDaughter;fontSize=16;startSize=14;endArrow=none;endSize=14;sourcePerimeterSpacing=0;targetPerimeterSpacing=0;endFill=0;exitX=1;exitY=1;exitDx=0;exitDy=0;" parent="D4baKiMUDy_573Tu_EqT-17" source="OnlCTqDmRdlNwVTcZ58E-34" target="OnlCTqDmRdlNwVTcZ58E-36" edge="1">
          <mxGeometry relative="1" as="geometry">
            <Array as="points">
              <mxPoint x="50.31999999999999" y="100" />
            </Array>
          </mxGeometry>
        </mxCell>
        <mxCell id="OnlCTqDmRdlNwVTcZ58E-34" value="\(V^{\prime}_{e^{s}_{2}}\)" style="ellipse;whiteSpace=wrap;html=1;aspect=fixed;fillColor=#fff2cc;strokeColor=default;fontSize=6;strokeWidth=1;" parent="D4baKiMUDy_573Tu_EqT-17" vertex="1">
          <mxGeometry x="10.25" y="70" width="20" height="20" as="geometry" />
        </mxCell>
        <mxCell id="OnlCTqDmRdlNwVTcZ58E-35" value="\(V^{\prime}_{e^{t}_{1}}\)" style="ellipse;whiteSpace=wrap;html=1;aspect=fixed;fillColor=#fff2cc;strokeColor=default;fontSize=6;strokeWidth=1;" parent="D4baKiMUDy_573Tu_EqT-17" vertex="1">
          <mxGeometry x="70.32" y="10" width="19.93" height="19.93" as="geometry" />
        </mxCell>
        <mxCell id="OnlCTqDmRdlNwVTcZ58E-36" value="\(V^{\prime}_{e^{t}_{2}}\)" style="ellipse;whiteSpace=wrap;html=1;aspect=fixed;fillColor=#fff2cc;strokeColor=default;fontSize=6;strokeWidth=1;" parent="D4baKiMUDy_573Tu_EqT-17" vertex="1">
          <mxGeometry x="70.25" y="70" width="20" height="20" as="geometry" />
        </mxCell>
        <mxCell id="D4baKiMUDy_573Tu_EqT-8" style="edgeStyle=none;curved=1;rounded=0;orthogonalLoop=1;jettySize=auto;html=1;entryX=0;entryY=0.5;entryDx=0;entryDy=0;fontFamily=Architects Daughter;fontSource=https%3A%2F%2Ffonts.googleapis.com%2Fcss%3Ffamily%3DArchitects%2BDaughter;fontSize=16;startSize=14;endArrow=none;endSize=14;sourcePerimeterSpacing=0;targetPerimeterSpacing=0;endFill=0;" parent="D4baKiMUDy_573Tu_EqT-17" source="OnlCTqDmRdlNwVTcZ58E-120" target="OnlCTqDmRdlNwVTcZ58E-30" edge="1">
          <mxGeometry relative="1" as="geometry" />
        </mxCell>
        <mxCell id="OnlCTqDmRdlNwVTcZ58E-120" value="&lt;span style=&quot;font-family: &amp;quot;Comic Sans MS&amp;quot;; font-weight: 700; font-size: 6px;&quot;&gt;\(V_{qd}\)&lt;/span&gt;" style="ellipse;whiteSpace=wrap;html=1;aspect=fixed;fillColor=#f8cecc;strokeColor=default;fontSize=6;strokeWidth=1;" parent="D4baKiMUDy_573Tu_EqT-17" vertex="1">
          <mxGeometry x="40.31999999999999" y="39.870000000000005" width="19.88" height="19.88" as="geometry" />
        </mxCell>
        <mxCell id="D4baKiMUDy_573Tu_EqT-13" style="edgeStyle=none;curved=1;rounded=0;orthogonalLoop=1;jettySize=auto;html=1;exitX=1;exitY=1;exitDx=0;exitDy=0;entryX=1.017;entryY=0.563;entryDx=0;entryDy=0;entryPerimeter=0;fontFamily=Architects Daughter;fontSource=https%3A%2F%2Ffonts.googleapis.com%2Fcss%3Ffamily%3DArchitects%2BDaughter;fontSize=16;startSize=14;endArrow=none;endSize=14;sourcePerimeterSpacing=0;targetPerimeterSpacing=0;endFill=0;" parent="D4baKiMUDy_573Tu_EqT-17" source="OnlCTqDmRdlNwVTcZ58E-30" target="OnlCTqDmRdlNwVTcZ58E-36" edge="1">
          <mxGeometry relative="1" as="geometry">
            <Array as="points">
              <mxPoint x="100.32" y="70" />
            </Array>
          </mxGeometry>
        </mxCell>
        <mxCell id="D4baKiMUDy_573Tu_EqT-19" value="" style="rounded=1;whiteSpace=wrap;html=1;fontSize=10;strokeColor=#000000;fillColor=none;" parent="1" vertex="1">
          <mxGeometry x="-554.3799999999999" y="603.25" width="140" height="100" as="geometry" />
        </mxCell>
        <mxCell id="D4baKiMUDy_573Tu_EqT-20" style="rounded=0;orthogonalLoop=1;jettySize=auto;html=1;exitX=0.5;exitY=0;exitDx=0;exitDy=0;entryX=1;entryY=1;entryDx=0;entryDy=0;endArrow=none;endFill=0;fontSize=10;strokeColor=#000000;" parent="1" source="D4baKiMUDy_573Tu_EqT-22" target="D4baKiMUDy_573Tu_EqT-27" edge="1">
          <mxGeometry relative="1" as="geometry" />
        </mxCell>
        <mxCell id="D4baKiMUDy_573Tu_EqT-21" style="rounded=0;orthogonalLoop=1;jettySize=auto;html=1;entryX=1;entryY=0;entryDx=0;entryDy=0;endArrow=none;endFill=0;exitX=0.5;exitY=1;exitDx=0;exitDy=0;fontSize=10;strokeColor=#000000;" parent="1" source="D4baKiMUDy_573Tu_EqT-22" target="D4baKiMUDy_573Tu_EqT-29" edge="1">
          <mxGeometry relative="1" as="geometry" />
        </mxCell>
        <mxCell id="D4baKiMUDy_573Tu_EqT-22" value="\(V^{\prime}_{e^{s}_{0}}\)" style="ellipse;whiteSpace=wrap;html=1;aspect=fixed;fillColor=#f8cecc;strokeColor=#000000;fontSize=10;" parent="1" vertex="1">
          <mxGeometry x="-508.12999999999994" y="640.75" width="25" height="25" as="geometry" />
        </mxCell>
        <mxCell id="D4baKiMUDy_573Tu_EqT-23" style="rounded=0;orthogonalLoop=1;jettySize=auto;html=1;entryX=0;entryY=1;entryDx=0;entryDy=0;endArrow=none;endFill=0;exitX=0.5;exitY=0;exitDx=0;exitDy=0;fontSize=10;strokeColor=#000000;" parent="1" source="D4baKiMUDy_573Tu_EqT-25" target="D4baKiMUDy_573Tu_EqT-30" edge="1">
          <mxGeometry relative="1" as="geometry" />
        </mxCell>
        <mxCell id="D4baKiMUDy_573Tu_EqT-24" style="rounded=0;orthogonalLoop=1;jettySize=auto;html=1;exitX=0.5;exitY=1;exitDx=0;exitDy=0;entryX=0;entryY=0;entryDx=0;entryDy=0;endArrow=none;endFill=0;fontSize=10;strokeColor=#000000;" parent="1" source="D4baKiMUDy_573Tu_EqT-25" target="D4baKiMUDy_573Tu_EqT-31" edge="1">
          <mxGeometry relative="1" as="geometry" />
        </mxCell>
        <mxCell id="D4baKiMUDy_573Tu_EqT-25" value="\(V^{\prime}_{e^{t}_{0}}\)" style="ellipse;whiteSpace=wrap;html=1;aspect=fixed;fillColor=#f8cecc;strokeColor=#000000;fontSize=10;" parent="1" vertex="1">
          <mxGeometry x="-465.62999999999994" y="640.75" width="25" height="25" as="geometry" />
        </mxCell>
        <mxCell id="D4baKiMUDy_573Tu_EqT-26" style="rounded=0;orthogonalLoop=1;jettySize=auto;html=1;entryX=0;entryY=0.5;entryDx=0;entryDy=0;endArrow=none;endFill=0;fontSize=10;strokeColor=#000000;" parent="1" source="D4baKiMUDy_573Tu_EqT-27" target="D4baKiMUDy_573Tu_EqT-30" edge="1">
          <mxGeometry relative="1" as="geometry" />
        </mxCell>
        <mxCell id="D4baKiMUDy_573Tu_EqT-27" value="\(V^{\prime}_{e^{s}_{1}}\)" style="ellipse;whiteSpace=wrap;html=1;aspect=fixed;fillColor=#fff2cc;strokeColor=#000000;fontSize=10;" parent="1" vertex="1">
          <mxGeometry x="-525.6299999999999" y="610.75" width="25" height="25" as="geometry" />
        </mxCell>
        <mxCell id="D4baKiMUDy_573Tu_EqT-28" style="rounded=0;orthogonalLoop=1;jettySize=auto;html=1;entryX=0;entryY=0.5;entryDx=0;entryDy=0;endArrow=none;endFill=0;fontSize=10;strokeColor=#000000;" parent="1" source="D4baKiMUDy_573Tu_EqT-29" target="D4baKiMUDy_573Tu_EqT-31" edge="1">
          <mxGeometry relative="1" as="geometry" />
        </mxCell>
        <mxCell id="D4baKiMUDy_573Tu_EqT-29" value="\(V^{\prime}_{e^{s}_{2}}\)" style="ellipse;whiteSpace=wrap;html=1;aspect=fixed;fillColor=#fff2cc;strokeColor=#000000;fontSize=10;" parent="1" vertex="1">
          <mxGeometry x="-525.6299999999999" y="670.75" width="25" height="25" as="geometry" />
        </mxCell>
        <mxCell id="D4baKiMUDy_573Tu_EqT-30" value="\(V^{\prime}_{e^{t}_{1}}\)" style="ellipse;whiteSpace=wrap;html=1;aspect=fixed;fillColor=#fff2cc;strokeColor=#000000;fontSize=10;" parent="1" vertex="1">
          <mxGeometry x="-445.62999999999994" y="610.75" width="25" height="25" as="geometry" />
        </mxCell>
        <mxCell id="D4baKiMUDy_573Tu_EqT-31" value="\(V^{\prime}_{e^{s}_{2}}\)" style="ellipse;whiteSpace=wrap;html=1;aspect=fixed;fillColor=#fff2cc;strokeColor=#000000;fontSize=10;" parent="1" vertex="1">
          <mxGeometry x="-445.62999999999994" y="670.75" width="25" height="25" as="geometry" />
        </mxCell>
        <mxCell id="D4baKiMUDy_573Tu_EqT-32" value="GCN" style="text;html=1;align=center;verticalAlign=middle;resizable=0;points=[];autosize=1;strokeColor=none;fillColor=none;fontFamily=Comic Sans MS;fontSize=10;" parent="1" vertex="1">
          <mxGeometry x="-553.1299999999999" y="638.25" width="40" height="30" as="geometry" />
        </mxCell>
        <mxCell id="D4baKiMUDy_573Tu_EqT-33" value="&lt;span style=&quot;font-family: &amp;quot;Comic Sans MS&amp;quot;; font-size: 10px; font-weight: 700; text-wrap: wrap;&quot;&gt;\(V_{kg}\)&lt;/span&gt;" style="text;html=1;align=center;verticalAlign=middle;resizable=0;points=[];autosize=1;strokeColor=none;fillColor=none;fontSize=20;fontFamily=Architects Daughter;fontSource=https%3A%2F%2Ffonts.googleapis.com%2Fcss%3Ffamily%3DArchitects%2BDaughter;" parent="1" vertex="1">
          <mxGeometry x="-827" y="450.5" width="70" height="40" as="geometry" />
        </mxCell>
        <mxCell id="D4baKiMUDy_573Tu_EqT-34" value="" style="group;fillColor=#d5e8d4;strokeColor=#000000;strokeWidth=0.5;" parent="1" vertex="1" connectable="0">
          <mxGeometry x="-770" y="470" width="50" height="10" as="geometry" />
        </mxCell>
        <mxCell id="D4baKiMUDy_573Tu_EqT-35" value="" style="rounded=0;whiteSpace=wrap;html=1;fontFamily=Architects Daughter;fontSource=https%3A%2F%2Ffonts.googleapis.com%2Fcss%3Ffamily%3DArchitects%2BDaughter;fillColor=#d5e8d4;strokeColor=#000000;strokeWidth=0.5;" parent="D4baKiMUDy_573Tu_EqT-34" vertex="1">
          <mxGeometry width="10" height="10" as="geometry" />
        </mxCell>
        <mxCell id="D4baKiMUDy_573Tu_EqT-36" value="" style="rounded=0;whiteSpace=wrap;html=1;fontFamily=Architects Daughter;fontSource=https%3A%2F%2Ffonts.googleapis.com%2Fcss%3Ffamily%3DArchitects%2BDaughter;fillColor=#d5e8d4;strokeColor=#000000;strokeWidth=0.5;" parent="D4baKiMUDy_573Tu_EqT-34" vertex="1">
          <mxGeometry x="10" width="10" height="10" as="geometry" />
        </mxCell>
        <mxCell id="D4baKiMUDy_573Tu_EqT-37" value="" style="rounded=0;whiteSpace=wrap;html=1;fontFamily=Architects Daughter;fontSource=https%3A%2F%2Ffonts.googleapis.com%2Fcss%3Ffamily%3DArchitects%2BDaughter;fillColor=#d5e8d4;strokeColor=#000000;strokeWidth=0.5;" parent="D4baKiMUDy_573Tu_EqT-34" vertex="1">
          <mxGeometry x="20" width="10" height="10" as="geometry" />
        </mxCell>
        <mxCell id="D4baKiMUDy_573Tu_EqT-38" value="" style="rounded=0;whiteSpace=wrap;html=1;fontFamily=Architects Daughter;fontSource=https%3A%2F%2Ffonts.googleapis.com%2Fcss%3Ffamily%3DArchitects%2BDaughter;fillColor=#d5e8d4;strokeColor=#000000;strokeWidth=0.5;" parent="D4baKiMUDy_573Tu_EqT-34" vertex="1">
          <mxGeometry x="30" width="10" height="10" as="geometry" />
        </mxCell>
        <mxCell id="D4baKiMUDy_573Tu_EqT-39" value="" style="rounded=0;whiteSpace=wrap;html=1;fontFamily=Architects Daughter;fontSource=https%3A%2F%2Ffonts.googleapis.com%2Fcss%3Ffamily%3DArchitects%2BDaughter;fillColor=#d5e8d4;strokeColor=#000000;strokeWidth=0.5;" parent="D4baKiMUDy_573Tu_EqT-34" vertex="1">
          <mxGeometry x="40" width="10" height="10" as="geometry" />
        </mxCell>
        <mxCell id="D4baKiMUDy_573Tu_EqT-40" value="&lt;span style=&quot;font-family: &amp;quot;Comic Sans MS&amp;quot;; font-size: 10px; font-weight: 700; text-wrap: wrap;&quot;&gt;\(V_{kg}\)&lt;/span&gt;" style="text;html=1;align=center;verticalAlign=middle;resizable=0;points=[];autosize=1;strokeColor=none;fillColor=none;fontSize=20;fontFamily=Architects Daughter;fontSource=https%3A%2F%2Ffonts.googleapis.com%2Fcss%3Ffamily%3DArchitects%2BDaughter;" parent="1" vertex="1">
          <mxGeometry x="293.28000000000003" y="561" width="70" height="40" as="geometry" />
        </mxCell>
        <mxCell id="D4baKiMUDy_573Tu_EqT-41" value="" style="group;fillColor=#d5e8d4;strokeColor=#000000;strokeWidth=0.5;" parent="1" vertex="1" connectable="0">
          <mxGeometry x="263.28000000000003" y="578.5" width="50" height="10" as="geometry" />
        </mxCell>
        <mxCell id="D4baKiMUDy_573Tu_EqT-42" value="" style="rounded=0;whiteSpace=wrap;html=1;fontFamily=Architects Daughter;fontSource=https%3A%2F%2Ffonts.googleapis.com%2Fcss%3Ffamily%3DArchitects%2BDaughter;fillColor=#d5e8d4;strokeColor=#000000;strokeWidth=0.5;" parent="D4baKiMUDy_573Tu_EqT-41" vertex="1">
          <mxGeometry width="10" height="10" as="geometry" />
        </mxCell>
        <mxCell id="D4baKiMUDy_573Tu_EqT-43" value="" style="rounded=0;whiteSpace=wrap;html=1;fontFamily=Architects Daughter;fontSource=https%3A%2F%2Ffonts.googleapis.com%2Fcss%3Ffamily%3DArchitects%2BDaughter;fillColor=#d5e8d4;strokeColor=#000000;strokeWidth=0.5;" parent="D4baKiMUDy_573Tu_EqT-41" vertex="1">
          <mxGeometry x="10" width="10" height="10" as="geometry" />
        </mxCell>
        <mxCell id="D4baKiMUDy_573Tu_EqT-44" value="" style="rounded=0;whiteSpace=wrap;html=1;fontFamily=Architects Daughter;fontSource=https%3A%2F%2Ffonts.googleapis.com%2Fcss%3Ffamily%3DArchitects%2BDaughter;fillColor=#d5e8d4;strokeColor=#000000;strokeWidth=0.5;" parent="D4baKiMUDy_573Tu_EqT-41" vertex="1">
          <mxGeometry x="20" width="10" height="10" as="geometry" />
        </mxCell>
        <mxCell id="D4baKiMUDy_573Tu_EqT-45" value="" style="rounded=0;whiteSpace=wrap;html=1;fontFamily=Architects Daughter;fontSource=https%3A%2F%2Ffonts.googleapis.com%2Fcss%3Ffamily%3DArchitects%2BDaughter;fillColor=#d5e8d4;strokeColor=#000000;strokeWidth=0.5;" parent="D4baKiMUDy_573Tu_EqT-41" vertex="1">
          <mxGeometry x="30" width="10" height="10" as="geometry" />
        </mxCell>
        <mxCell id="D4baKiMUDy_573Tu_EqT-46" value="" style="rounded=0;whiteSpace=wrap;html=1;fontFamily=Architects Daughter;fontSource=https%3A%2F%2Ffonts.googleapis.com%2Fcss%3Ffamily%3DArchitects%2BDaughter;fillColor=#d5e8d4;strokeColor=#000000;strokeWidth=0.5;" parent="D4baKiMUDy_573Tu_EqT-41" vertex="1">
          <mxGeometry x="40" width="10" height="10" as="geometry" />
        </mxCell>
        <mxCell id="D4baKiMUDy_573Tu_EqT-48" style="edgeStyle=none;curved=1;rounded=0;orthogonalLoop=1;jettySize=auto;html=1;entryX=0.5;entryY=1;entryDx=0;entryDy=0;fontFamily=Architects Daughter;fontSource=https%3A%2F%2Ffonts.googleapis.com%2Fcss%3Ffamily%3DArchitects%2BDaughter;fontSize=16;startSize=6;endArrow=classic;endSize=6;sourcePerimeterSpacing=0;targetPerimeterSpacing=0;endFill=1;" parent="1" source="OnlCTqDmRdlNwVTcZ58E-92" target="bGY2hs7u3ISQT8fnIvgC-26" edge="1">
          <mxGeometry relative="1" as="geometry" />
        </mxCell>
        <mxCell id="D4baKiMUDy_573Tu_EqT-49" style="edgeStyle=none;curved=1;rounded=0;orthogonalLoop=1;jettySize=auto;html=1;entryX=1;entryY=0.5;entryDx=0;entryDy=0;fontFamily=Architects Daughter;fontSource=https%3A%2F%2Ffonts.googleapis.com%2Fcss%3Ffamily%3DArchitects%2BDaughter;fontSize=16;startSize=6;endArrow=classic;endSize=6;sourcePerimeterSpacing=0;targetPerimeterSpacing=0;endFill=1;" parent="1" source="D4baKiMUDy_573Tu_EqT-42" target="bGY2hs7u3ISQT8fnIvgC-26" edge="1">
          <mxGeometry relative="1" as="geometry" />
        </mxCell>
        <mxCell id="D4baKiMUDy_573Tu_EqT-50" value="" style="group;fillColor=#d5e8d4;strokeColor=#000000;strokeWidth=0.5;gradientDirection=east;" parent="1" vertex="1" connectable="0">
          <mxGeometry x="44.410000000000025" y="528.5" width="50" height="10" as="geometry" />
        </mxCell>
        <mxCell id="D4baKiMUDy_573Tu_EqT-51" value="" style="rounded=0;whiteSpace=wrap;html=1;fontFamily=Architects Daughter;fontSource=https%3A%2F%2Ffonts.googleapis.com%2Fcss%3Ffamily%3DArchitects%2BDaughter;fillColor=#f8cecc;strokeColor=#000000;strokeWidth=0.5;gradientDirection=east;" parent="D4baKiMUDy_573Tu_EqT-50" vertex="1">
          <mxGeometry width="10" height="10" as="geometry" />
        </mxCell>
        <mxCell id="D4baKiMUDy_573Tu_EqT-52" value="" style="rounded=0;whiteSpace=wrap;html=1;fontFamily=Architects Daughter;fontSource=https%3A%2F%2Ffonts.googleapis.com%2Fcss%3Ffamily%3DArchitects%2BDaughter;fillColor=#f8cecc;strokeColor=#000000;strokeWidth=0.5;gradientColor=#fff2cc;gradientDirection=east;" parent="D4baKiMUDy_573Tu_EqT-50" vertex="1">
          <mxGeometry x="10" width="10" height="10" as="geometry" />
        </mxCell>
        <mxCell id="D4baKiMUDy_573Tu_EqT-53" value="" style="rounded=0;whiteSpace=wrap;html=1;fontFamily=Architects Daughter;fontSource=https%3A%2F%2Ffonts.googleapis.com%2Fcss%3Ffamily%3DArchitects%2BDaughter;fillColor=#fff2cc;strokeColor=#000000;strokeWidth=0.5;gradientDirection=east;" parent="D4baKiMUDy_573Tu_EqT-50" vertex="1">
          <mxGeometry x="20" width="10" height="10" as="geometry" />
        </mxCell>
        <mxCell id="D4baKiMUDy_573Tu_EqT-54" value="" style="rounded=0;whiteSpace=wrap;html=1;fontFamily=Architects Daughter;fontSource=https%3A%2F%2Ffonts.googleapis.com%2Fcss%3Ffamily%3DArchitects%2BDaughter;fillColor=#fff2cc;strokeColor=#000000;strokeWidth=0.5;gradientDirection=east;gradientColor=#d5e8d4;" parent="D4baKiMUDy_573Tu_EqT-50" vertex="1">
          <mxGeometry x="30" width="10" height="10" as="geometry" />
        </mxCell>
        <mxCell id="D4baKiMUDy_573Tu_EqT-55" value="" style="rounded=0;whiteSpace=wrap;html=1;fontFamily=Architects Daughter;fontSource=https%3A%2F%2Ffonts.googleapis.com%2Fcss%3Ffamily%3DArchitects%2BDaughter;fillColor=#d5e8d4;strokeColor=#000000;strokeWidth=0.5;gradientDirection=east;" parent="D4baKiMUDy_573Tu_EqT-50" vertex="1">
          <mxGeometry x="40" width="10" height="10" as="geometry" />
        </mxCell>
        <mxCell id="D4baKiMUDy_573Tu_EqT-59" value="&lt;span style=&quot;text-wrap: nowrap; font-size: 10px;&quot;&gt;\(V_{q_{kg}}\)&lt;/span&gt;" style="text;strokeColor=none;fillColor=none;html=1;align=center;verticalAlign=middle;whiteSpace=wrap;rounded=0;fontSize=10;fontFamily=Architects Daughter;fontSource=https%3A%2F%2Ffonts.googleapis.com%2Fcss%3Ffamily%3DArchitects%2BDaughter;" parent="1" vertex="1">
          <mxGeometry x="18" y="523.5" width="26.41" height="20" as="geometry" />
        </mxCell>
        <mxCell id="D4baKiMUDy_573Tu_EqT-62" value="Score" style="text;strokeColor=none;fillColor=none;html=1;align=center;verticalAlign=middle;whiteSpace=wrap;rounded=0;fontSize=20;fontFamily=Architects Daughter;fontSource=https%3A%2F%2Ffonts.googleapis.com%2Fcss%3Ffamily%3DArchitects%2BDaughter;" parent="1" vertex="1">
          <mxGeometry x="233.28000000000003" y="518.5" width="60" height="30" as="geometry" />
        </mxCell>
        <mxCell id="hTf2ttmP5pIr379pLKzJ-2" value="mean_pool" style="text;strokeColor=none;fillColor=none;html=1;align=center;verticalAlign=middle;whiteSpace=wrap;rounded=0;fontSize=12;fontFamily=Architects Daughter;fontSource=https%3A%2F%2Ffonts.googleapis.com%2Fcss%3Ffamily%3DArchitects%2BDaughter;" vertex="1" parent="1">
          <mxGeometry x="286.47" y="592.75" width="68.69" height="18" as="geometry" />
        </mxCell>
        <mxCell id="hTf2ttmP5pIr379pLKzJ-3" value="\(\mathcal{L}_{hinge}\)" style="rounded=1;whiteSpace=wrap;html=1;fontFamily=Architects Daughter;fontSource=https%3A%2F%2Ffonts.googleapis.com%2Fcss%3Ffamily%3DArchitects%2BDaughter;fontSize=10;fillColor=#FC7E7E;strokeColor=#000000;" vertex="1" parent="1">
          <mxGeometry x="326.7500000000001" y="524" width="38.75" height="19.5" as="geometry" />
        </mxCell>
        <mxCell id="hTf2ttmP5pIr379pLKzJ-4" style="edgeStyle=none;curved=1;rounded=0;orthogonalLoop=1;jettySize=auto;html=1;fontFamily=Architects Daughter;fontSource=https%3A%2F%2Ffonts.googleapis.com%2Fcss%3Ffamily%3DArchitects%2BDaughter;fontSize=16;startSize=6;endArrow=classic;endSize=6;sourcePerimeterSpacing=0;targetPerimeterSpacing=0;entryX=0;entryY=0.5;entryDx=0;entryDy=0;endFill=1;exitX=1;exitY=0.5;exitDx=0;exitDy=0;" edge="1" parent="1" source="D4baKiMUDy_573Tu_EqT-55" target="OnlCTqDmRdlNwVTcZ58E-14">
          <mxGeometry relative="1" as="geometry">
            <mxPoint x="79" y="549" as="targetPoint" />
            <mxPoint x="79" y="584" as="sourcePoint" />
          </mxGeometry>
        </mxCell>
        <mxCell id="hTf2ttmP5pIr379pLKzJ-5" style="edgeStyle=none;curved=1;rounded=0;orthogonalLoop=1;jettySize=auto;html=1;fontFamily=Architects Daughter;fontSource=https%3A%2F%2Ffonts.googleapis.com%2Fcss%3Ffamily%3DArchitects%2BDaughter;fontSize=16;startSize=6;endArrow=classic;endSize=6;sourcePerimeterSpacing=0;targetPerimeterSpacing=0;entryX=0;entryY=0.5;entryDx=0;entryDy=0;endFill=1;exitX=1;exitY=0.5;exitDx=0;exitDy=0;" edge="1" parent="1" source="OnlCTqDmRdlNwVTcZ58E-14" target="D4baKiMUDy_573Tu_EqT-62">
          <mxGeometry relative="1" as="geometry">
            <mxPoint x="89" y="559" as="targetPoint" />
            <mxPoint x="89" y="594" as="sourcePoint" />
          </mxGeometry>
        </mxCell>
        <mxCell id="hTf2ttmP5pIr379pLKzJ-6" style="edgeStyle=none;curved=1;rounded=0;orthogonalLoop=1;jettySize=auto;html=1;fontFamily=Architects Daughter;fontSource=https%3A%2F%2Ffonts.googleapis.com%2Fcss%3Ffamily%3DArchitects%2BDaughter;fontSize=16;startSize=6;endArrow=classic;endSize=6;sourcePerimeterSpacing=0;targetPerimeterSpacing=0;entryX=0;entryY=0.5;entryDx=0;entryDy=0;endFill=1;exitX=1;exitY=0.5;exitDx=0;exitDy=0;" edge="1" parent="1" source="D4baKiMUDy_573Tu_EqT-62" target="hTf2ttmP5pIr379pLKzJ-3">
          <mxGeometry relative="1" as="geometry">
            <mxPoint x="293.28" y="543.5" as="targetPoint" />
            <mxPoint x="293.28" y="578.5" as="sourcePoint" />
          </mxGeometry>
        </mxCell>
        <mxCell id="hTf2ttmP5pIr379pLKzJ-7" value="&lt;p style=&quot;margin-top: 0pt; margin-bottom: 0pt; margin-left: 0in; direction: ltr; unicode-bidi: embed; font-size: 10px;&quot;&gt;&lt;span style=&quot;font-size: 10px; font-family: 微软雅黑;&quot;&gt;实体信息聚合&lt;/span&gt;&lt;/p&gt;" style="text;html=1;align=center;verticalAlign=middle;resizable=0;points=[];autosize=1;strokeColor=none;fillColor=none;fontSize=10;fontFamily=Architects Daughter;fontSource=https%3A%2F%2Ffonts.googleapis.com%2Fcss%3Ffamily%3DArchitects%2BDaughter;fontStyle=1" vertex="1" parent="1">
          <mxGeometry x="363.2800000000001" y="648.5" width="80" height="30" as="geometry" />
        </mxCell>
        <mxCell id="hTf2ttmP5pIr379pLKzJ-8" value="&lt;p style=&quot;margin-top: 0pt; margin-bottom: 0pt; margin-left: 0in; direction: ltr; unicode-bidi: embed; font-size: 10px;&quot;&gt;&lt;span style=&quot;font-size: 10px; font-family: 微软雅黑;&quot;&gt;查询知识融合&lt;/span&gt;&lt;/p&gt;" style="text;html=1;align=center;verticalAlign=middle;resizable=0;points=[];autosize=1;strokeColor=none;fillColor=none;fontSize=10;fontFamily=Architects Daughter;fontSource=https%3A%2F%2Ffonts.googleapis.com%2Fcss%3Ffamily%3DArchitects%2BDaughter;fontStyle=1" vertex="1" parent="1">
          <mxGeometry x="-39.969999999999914" y="568.5" width="80" height="30" as="geometry" />
        </mxCell>
      </root>
    </mxGraphModel>
  </diagram>
</mxfile>
